<?xml version="1.0" encoding="utf-8"?>
<!-- Generator: Adobe Illustrator 16.0.0, SVG Export Plug-In . SVG Version: 6.00 Build 0)  -->
<!DOCTYPE svg PUBLIC "-//W3C//DTD SVG 1.1//EN" "http://www.w3.org/Graphics/SVG/1.1/DTD/svg11.dtd">
<svg version="1.1" xmlns="http://www.w3.org/2000/svg" xmlns:xlink="http://www.w3.org/1999/xlink" x="0px" y="0px"
	 width="841.89px" height="595.28px" viewBox="0 0 841.89 595.28" enable-background="new 0 0 841.89 595.28" xml:space="preserve">
<g id="Fukushima">
	<g>
		<polygon stroke="#000000" stroke-miterlimit="10" points="320.699,237.149 341.004,237.149 328.387,245.742 		"/>
		<polygon fill="none" stroke="#000000" stroke-miterlimit="10" points="324.724,237.149 341.004,237.149 332.411,245.742 		"/>
	</g>
	<g>
		<polygon stroke="#000000" stroke-miterlimit="10" points="516.91,265.664 537.215,265.664 524.598,274.256 		"/>
		<polygon fill="none" stroke="#000000" stroke-miterlimit="10" points="520.936,265.664 537.215,265.664 528.623,274.256 		"/>
	</g>
</g>
<g id="Epizentrum" display="none">
	<circle display="inline" cx="420.945" cy="297.641" r="8.356"/>
</g>
<g id="Erde" display="none">
	<circle display="inline" cx="420.945" cy="297.641" r="8.356"/>
	<g display="inline">
		<circle cx="382.139" cy="213.584" r="1.808"/>
		<circle cx="350.699" cy="222.878" r="1.808"/>
		<circle cx="360.084" cy="228.407" r="3.451"/>
		<circle cx="389.628" cy="218.971" r="3.451"/>
		<circle cx="367.997" cy="197.242" r="3.451"/>
		<circle cx="361.304" cy="208.68" r="2.231"/>
		<circle cx="365.766" cy="249.042" r="2.231"/>
		<circle cx="383.947" cy="232.257" r="2.231"/>
		<circle cx="351.457" cy="232.257" r="2.231"/>
		<circle cx="376.708" cy="224.957" r="2.231"/>
		<circle cx="344.76" cy="211.776" r="2.231"/>
		<circle cx="368.498" cy="220.021" r="1.05"/>
		<circle cx="357.683" cy="245.06" r="1.05"/>
		<circle cx="367.448" cy="232.257" r="1.05"/>
		<circle cx="352.507" cy="207.499" r="1.05"/>
		<circle cx="335.983" cy="222.878" r="1.05"/>
		<circle cx="379.281" cy="234.488" r="1.05"/>
		<circle cx="373.428" cy="208.68" r="1.05"/>
		<circle cx="380.331" cy="220.021" r="1.05"/>
		<circle cx="360.084" cy="217.922" r="1.05"/>
	</g>
	<g display="inline">
		<circle cx="420.634" cy="190.719" r="1.808"/>
		<circle cx="389.194" cy="200.013" r="1.808"/>
		<circle cx="398.579" cy="205.542" r="3.451"/>
		<circle cx="428.123" cy="196.106" r="3.451"/>
		<circle cx="406.491" cy="174.377" r="3.451"/>
		<circle cx="399.799" cy="185.815" r="2.231"/>
		<circle cx="404.26" cy="226.177" r="2.231"/>
		<circle cx="422.441" cy="209.393" r="2.23"/>
		<circle cx="389.952" cy="209.393" r="2.231"/>
		<circle cx="415.203" cy="202.092" r="2.231"/>
		<circle cx="383.255" cy="188.912" r="2.231"/>
		<circle cx="406.992" cy="197.156" r="1.05"/>
		<circle cx="396.178" cy="222.195" r="1.05"/>
		<circle cx="405.943" cy="209.393" r="1.05"/>
		<circle cx="391.001" cy="184.634" r="1.05"/>
		<circle cx="374.477" cy="200.013" r="1.05"/>
		<circle cx="417.776" cy="211.624" r="1.05"/>
		<circle cx="411.923" cy="185.815" r="1.05"/>
		<circle cx="418.826" cy="197.156" r="1.05"/>
		<circle cx="398.579" cy="195.057" r="1.05"/>
	</g>
	<g display="inline">
		<circle cx="392.61" cy="156.289" r="1.808"/>
		<circle cx="361.17" cy="165.583" r="1.808"/>
		<circle cx="370.555" cy="171.112" r="3.451"/>
		<circle cx="400.099" cy="161.676" r="3.451"/>
		<circle cx="378.467" cy="139.947" r="3.451"/>
		<circle cx="371.775" cy="151.385" r="2.231"/>
		<circle cx="376.237" cy="191.747" r="2.231"/>
		<circle cx="394.417" cy="174.962" r="2.23"/>
		<circle cx="361.928" cy="174.962" r="2.231"/>
		<circle cx="387.179" cy="167.662" r="2.231"/>
		<circle cx="355.231" cy="154.481" r="2.231"/>
		<circle cx="378.969" cy="162.726" r="1.05"/>
		<circle cx="368.154" cy="187.765" r="1.05"/>
		<circle cx="377.919" cy="174.962" r="1.05"/>
		<circle cx="362.977" cy="150.204" r="1.05"/>
		<circle cx="346.453" cy="165.583" r="1.05"/>
		<circle cx="389.752" cy="177.193" r="1.05"/>
		<circle cx="383.899" cy="151.385" r="1.05"/>
		<circle cx="390.802" cy="162.726" r="1.05"/>
		<circle cx="370.555" cy="160.627" r="1.05"/>
	</g>
	<g display="inline">
		<circle cx="350.99" cy="180.771" r="1.808"/>
		<circle cx="319.55" cy="190.065" r="1.808"/>
		<circle cx="328.935" cy="195.595" r="3.451"/>
		<circle cx="358.479" cy="186.159" r="3.451"/>
		<circle cx="336.847" cy="164.43" r="3.451"/>
		<circle cx="330.155" cy="175.867" r="2.231"/>
		<circle cx="334.616" cy="216.229" r="2.231"/>
		<circle cx="352.797" cy="199.445" r="2.23"/>
		<circle cx="320.308" cy="199.445" r="2.231"/>
		<circle cx="345.559" cy="192.144" r="2.231"/>
		<circle cx="313.611" cy="178.964" r="2.231"/>
		<circle cx="337.348" cy="187.208" r="1.05"/>
		<circle cx="326.534" cy="212.248" r="1.05"/>
		<circle cx="336.299" cy="199.445" r="1.05"/>
		<circle cx="321.357" cy="174.686" r="1.05"/>
		<circle cx="304.833" cy="190.065" r="1.05"/>
		<circle cx="348.132" cy="201.676" r="1.05"/>
		<circle cx="342.279" cy="175.867" r="1.05"/>
		<circle cx="349.182" cy="187.208" r="1.05"/>
		<circle cx="328.935" cy="185.109" r="1.05"/>
	</g>
	<g display="inline">
		<circle cx="430.056" cy="240.094" r="1.808"/>
		<circle cx="398.615" cy="249.388" r="1.808"/>
		<circle cx="408.001" cy="254.917" r="3.451"/>
		<circle cx="437.545" cy="245.481" r="3.451"/>
		<circle cx="415.913" cy="223.752" r="3.451"/>
		<circle cx="409.221" cy="235.189" r="2.231"/>
		<circle cx="413.682" cy="275.551" r="2.231"/>
		<circle cx="431.863" cy="258.767" r="2.23"/>
		<circle cx="399.374" cy="258.767" r="2.231"/>
		<circle cx="424.625" cy="251.466" r="2.23"/>
		<circle cx="392.677" cy="238.286" r="2.231"/>
		<circle cx="416.414" cy="246.53" r="1.05"/>
		<circle cx="405.6" cy="271.57" r="1.05"/>
		<circle cx="415.365" cy="258.767" r="1.05"/>
		<circle cx="400.423" cy="234.008" r="1.05"/>
		<circle cx="383.899" cy="249.388" r="1.05"/>
		<circle cx="427.198" cy="260.998" r="1.05"/>
		<circle cx="421.345" cy="235.189" r="1.05"/>
		<circle cx="428.248" cy="246.53" r="1.049"/>
		<circle cx="408.001" cy="244.432" r="1.05"/>
	</g>
	<g display="inline">
		<circle cx="469.647" cy="214.297" r="1.808"/>
		<circle cx="438.208" cy="223.591" r="1.808"/>
		<circle cx="447.593" cy="229.12" r="3.45"/>
		<circle cx="477.137" cy="219.684" r="3.451"/>
		<circle cx="455.505" cy="197.955" r="3.45"/>
		<circle cx="448.812" cy="209.393" r="2.23"/>
		<circle cx="453.274" cy="249.754" r="2.231"/>
		<circle cx="471.455" cy="232.97" r="2.23"/>
		<circle cx="438.965" cy="232.97" r="2.231"/>
		<circle cx="464.217" cy="225.669" r="2.23"/>
		<circle cx="432.268" cy="212.489" r="2.231"/>
		<circle cx="456.006" cy="220.733" r="1.049"/>
		<circle cx="445.192" cy="245.773" r="1.049"/>
		<circle cx="454.957" cy="232.97" r="1.049"/>
		<circle cx="440.015" cy="208.211" r="1.05"/>
		<circle cx="423.491" cy="223.591" r="1.05"/>
		<circle cx="466.79" cy="235.201" r="1.05"/>
		<circle cx="460.937" cy="209.393" r="1.05"/>
		<circle cx="467.839" cy="220.733" r="1.049"/>
		<circle cx="447.593" cy="218.635" r="1.05"/>
	</g>
	<g display="inline">
		<circle cx="303.024" cy="261.781" r="1.808"/>
		<circle cx="271.584" cy="271.075" r="1.808"/>
		<circle cx="280.969" cy="276.604" r="3.451"/>
		<circle cx="310.513" cy="267.168" r="3.451"/>
		<circle cx="288.881" cy="245.439" r="3.451"/>
		<circle cx="282.189" cy="256.877" r="2.231"/>
		<circle cx="286.651" cy="297.238" r="2.231"/>
		<circle cx="304.832" cy="280.455" r="2.231"/>
		<circle cx="272.342" cy="280.455" r="2.231"/>
		<circle cx="297.593" cy="273.154" r="2.231"/>
		<circle cx="265.645" cy="259.974" r="2.231"/>
		<circle cx="289.383" cy="268.218" r="1.05"/>
		<circle cx="278.568" cy="293.257" r="1.05"/>
		<circle cx="288.333" cy="280.455" r="1.05"/>
		<circle cx="273.391" cy="255.696" r="1.05"/>
		<circle cx="256.867" cy="271.075" r="1.05"/>
		<circle cx="300.166" cy="282.686" r="1.05"/>
		<circle cx="294.313" cy="256.877" r="1.05"/>
		<circle cx="301.216" cy="268.218" r="1.05"/>
		<circle cx="280.969" cy="266.119" r="1.05"/>
	</g>
	<g display="inline">
		<circle cx="341.518" cy="238.917" r="1.808"/>
		<circle cx="310.078" cy="248.21" r="1.808"/>
		<circle cx="319.464" cy="253.74" r="3.451"/>
		<circle cx="349.008" cy="244.304" r="3.451"/>
		<circle cx="327.376" cy="222.575" r="3.451"/>
		<circle cx="320.684" cy="234.012" r="2.231"/>
		<circle cx="325.145" cy="274.374" r="2.231"/>
		<circle cx="343.326" cy="257.59" r="2.23"/>
		<circle cx="310.837" cy="257.59" r="2.231"/>
		<circle cx="336.088" cy="250.289" r="2.231"/>
		<circle cx="304.139" cy="237.109" r="2.231"/>
		<circle cx="327.877" cy="245.353" r="1.05"/>
		<circle cx="317.063" cy="270.393" r="1.05"/>
		<circle cx="326.828" cy="257.59" r="1.05"/>
		<circle cx="311.886" cy="232.831" r="1.05"/>
		<circle cx="295.362" cy="248.21" r="1.05"/>
		<circle cx="338.661" cy="259.821" r="1.05"/>
		<circle cx="332.807" cy="234.012" r="1.05"/>
		<circle cx="339.711" cy="245.353" r="1.05"/>
		<circle cx="319.464" cy="243.254" r="1.05"/>
	</g>
	<g display="inline">
		<circle cx="350.94" cy="288.291" r="1.808"/>
		<circle cx="319.5" cy="297.585" r="1.808"/>
		<circle cx="328.886" cy="303.114" r="3.451"/>
		<circle cx="358.43" cy="293.678" r="3.451"/>
		<circle cx="336.798" cy="271.949" r="3.451"/>
		<circle cx="330.106" cy="283.387" r="2.231"/>
		<circle cx="334.567" cy="323.748" r="2.231"/>
		<circle cx="352.748" cy="306.965" r="2.23"/>
		<circle cx="320.259" cy="306.965" r="2.231"/>
		<circle cx="345.51" cy="299.664" r="2.23"/>
		<circle cx="313.561" cy="286.483" r="2.231"/>
		<circle cx="337.299" cy="294.728" r="1.05"/>
		<circle cx="326.485" cy="319.768" r="1.05"/>
		<circle cx="336.25" cy="306.965" r="1.05"/>
		<circle cx="321.308" cy="282.206" r="1.05"/>
		<circle cx="304.784" cy="297.585" r="1.05"/>
		<circle cx="348.083" cy="309.195" r="1.05"/>
		<circle cx="342.229" cy="283.387" r="1.05"/>
		<circle cx="349.132" cy="294.728" r="1.049"/>
		<circle cx="328.885" cy="292.629" r="1.05"/>
	</g>
	<g display="inline">
		<circle cx="390.532" cy="262.494" r="1.808"/>
		<circle cx="359.092" cy="271.788" r="1.808"/>
		<circle cx="368.478" cy="277.317" r="3.45"/>
		<circle cx="398.021" cy="267.881" r="3.451"/>
		<circle cx="376.39" cy="246.152" r="3.45"/>
		<circle cx="369.697" cy="257.59" r="2.23"/>
		<circle cx="374.159" cy="297.951" r="2.231"/>
		<circle cx="392.34" cy="281.167" r="2.23"/>
		<circle cx="359.85" cy="281.167" r="2.231"/>
		<circle cx="385.102" cy="273.867" r="2.23"/>
		<circle cx="353.153" cy="260.687" r="2.231"/>
		<circle cx="376.891" cy="268.931" r="1.049"/>
		<circle cx="366.077" cy="293.97" r="1.049"/>
		<circle cx="375.841" cy="281.167" r="1.049"/>
		<circle cx="360.899" cy="256.409" r="1.05"/>
		<circle cx="344.376" cy="271.788" r="1.05"/>
		<circle cx="387.675" cy="283.398" r="1.05"/>
		<circle cx="381.821" cy="257.59" r="1.05"/>
		<circle cx="388.724" cy="268.931" r="1.049"/>
		<circle cx="368.478" cy="266.832" r="1.05"/>
	</g>
	<g display="inline">
		<circle cx="439.084" cy="285.88" r="1.808"/>
		<circle cx="407.644" cy="295.174" r="1.808"/>
		<circle cx="417.03" cy="300.703" r="3.451"/>
		<circle cx="446.574" cy="291.267" r="3.451"/>
		<circle cx="424.942" cy="269.538" r="3.451"/>
		<circle cx="418.25" cy="280.976" r="2.231"/>
		<circle cx="422.711" cy="321.338" r="2.23"/>
		<circle cx="440.893" cy="304.553" r="2.23"/>
		<circle cx="408.403" cy="304.553" r="2.231"/>
		<circle cx="433.654" cy="297.252" r="2.231"/>
		<circle cx="401.705" cy="284.072" r="2.231"/>
		<circle cx="425.443" cy="292.316" r="1.049"/>
		<circle cx="414.629" cy="317.355" r="1.05"/>
		<circle cx="424.394" cy="304.553" r="1.05"/>
		<circle cx="409.452" cy="279.794" r="1.05"/>
		<circle cx="392.928" cy="295.174" r="1.05"/>
		<circle cx="436.227" cy="306.784" r="1.049"/>
		<circle cx="430.374" cy="280.976" r="1.049"/>
		<circle cx="437.276" cy="292.316" r="1.05"/>
		<circle cx="417.03" cy="290.218" r="1.05"/>
	</g>
	<g display="inline">
		<circle cx="477.579" cy="263.015" r="1.808"/>
		<circle cx="446.139" cy="272.309" r="1.808"/>
		<circle cx="455.524" cy="277.838" r="3.45"/>
		<circle cx="485.068" cy="268.402" r="3.451"/>
		<circle cx="463.437" cy="246.673" r="3.45"/>
		<circle cx="456.744" cy="258.111" r="2.23"/>
		<circle cx="461.206" cy="298.473" r="2.231"/>
		<circle cx="479.387" cy="281.688" r="2.23"/>
		<circle cx="446.897" cy="281.688" r="2.231"/>
		<circle cx="472.148" cy="274.388" r="2.23"/>
		<circle cx="440.2" cy="261.208" r="2.231"/>
		<circle cx="463.938" cy="269.452" r="1.049"/>
		<circle cx="453.124" cy="294.491" r="1.049"/>
		<circle cx="462.888" cy="281.688" r="1.049"/>
		<circle cx="447.946" cy="256.93" r="1.05"/>
		<circle cx="431.423" cy="272.309" r="1.05"/>
		<circle cx="474.722" cy="283.919" r="1.05"/>
		<circle cx="468.868" cy="258.111" r="1.05"/>
		<circle cx="475.771" cy="269.452" r="1.049"/>
		<circle cx="455.524" cy="267.353" r="1.05"/>
	</g>
	<g display="inline">
		<circle cx="516.274" cy="238.632" r="1.808"/>
		<circle cx="484.834" cy="247.926" r="1.808"/>
		<circle cx="494.22" cy="253.456" r="3.45"/>
		<circle cx="523.764" cy="244.02" r="3.451"/>
		<circle cx="502.132" cy="222.291" r="3.45"/>
		<circle cx="495.439" cy="233.728" r="2.23"/>
		<circle cx="499.901" cy="274.09" r="2.231"/>
		<circle cx="518.082" cy="257.306" r="2.23"/>
		<circle cx="485.592" cy="257.306" r="2.231"/>
		<circle cx="510.844" cy="250.005" r="2.23"/>
		<circle cx="478.895" cy="236.825" r="2.231"/>
		<circle cx="502.633" cy="245.069" r="1.049"/>
		<circle cx="491.819" cy="270.108" r="1.049"/>
		<circle cx="501.583" cy="257.306" r="1.049"/>
		<circle cx="486.642" cy="232.547" r="1.05"/>
		<circle cx="470.118" cy="247.926" r="1.05"/>
		<circle cx="513.417" cy="259.537" r="1.05"/>
		<circle cx="507.563" cy="233.728" r="1.05"/>
		<circle cx="514.466" cy="245.069" r="1.049"/>
		<circle cx="494.22" cy="242.97" r="1.05"/>
	</g>
	<g display="inline">
		<circle cx="487.001" cy="312.39" r="1.808"/>
		<circle cx="455.561" cy="321.684" r="1.808"/>
		<circle cx="464.946" cy="327.213" r="3.45"/>
		<circle cx="494.49" cy="317.777" r="3.451"/>
		<circle cx="472.858" cy="296.048" r="3.45"/>
		<circle cx="466.166" cy="307.485" r="2.23"/>
		<circle cx="470.627" cy="347.848" r="2.231"/>
		<circle cx="488.809" cy="331.062" r="2.23"/>
		<circle cx="456.319" cy="331.062" r="2.231"/>
		<circle cx="481.57" cy="323.762" r="2.23"/>
		<circle cx="449.622" cy="310.582" r="2.231"/>
		<circle cx="473.36" cy="318.826" r="1.049"/>
		<circle cx="462.545" cy="343.865" r="1.049"/>
		<circle cx="472.31" cy="331.062" r="1.049"/>
		<circle cx="457.368" cy="306.305" r="1.05"/>
		<circle cx="440.845" cy="321.684" r="1.05"/>
		<circle cx="484.144" cy="333.294" r="1.05"/>
		<circle cx="478.29" cy="307.485" r="1.05"/>
		<circle cx="485.193" cy="318.826" r="1.049"/>
		<circle cx="464.946" cy="316.728" r="1.05"/>
	</g>
	<g display="inline">
		<circle cx="526.593" cy="286.593" r="1.808"/>
		<circle cx="495.153" cy="295.887" r="1.808"/>
		<circle cx="504.538" cy="301.416" r="3.45"/>
		<circle cx="534.082" cy="291.98" r="3.451"/>
		<circle cx="512.45" cy="270.251" r="3.45"/>
		<circle cx="505.758" cy="281.688" r="2.23"/>
		<circle cx="510.219" cy="322.051" r="2.231"/>
		<circle cx="528.4" cy="305.266" r="2.23"/>
		<circle cx="495.911" cy="305.266" r="2.231"/>
		<circle cx="521.162" cy="297.965" r="2.23"/>
		<circle cx="489.213" cy="284.785" r="2.231"/>
		<circle cx="512.952" cy="293.029" r="1.049"/>
		<circle cx="502.137" cy="318.068" r="1.049"/>
		<circle cx="511.902" cy="305.266" r="1.049"/>
		<circle cx="496.96" cy="280.507" r="1.05"/>
		<circle cx="480.437" cy="295.887" r="1.05"/>
		<circle cx="523.735" cy="307.497" r="1.05"/>
		<circle cx="517.882" cy="281.688" r="1.05"/>
		<circle cx="524.785" cy="293.029" r="1.049"/>
		<circle cx="504.538" cy="290.931" r="1.05"/>
	</g>
	<g display="inline">
		<circle cx="359.969" cy="334.077" r="1.808"/>
		<circle cx="328.529" cy="343.371" r="1.808"/>
		<circle cx="337.915" cy="348.9" r="3.451"/>
		<circle cx="367.458" cy="339.465" r="3.451"/>
		<circle cx="345.827" cy="317.735" r="3.451"/>
		<circle cx="339.135" cy="329.173" r="2.231"/>
		<circle cx="343.596" cy="369.534" r="2.231"/>
		<circle cx="361.777" cy="352.75" r="2.231"/>
		<circle cx="329.287" cy="352.75" r="2.231"/>
		<circle cx="354.538" cy="345.449" r="2.231"/>
		<circle cx="322.59" cy="332.27" r="2.231"/>
		<circle cx="346.328" cy="340.514" r="1.05"/>
		<circle cx="335.513" cy="365.553" r="1.05"/>
		<circle cx="345.279" cy="352.75" r="1.05"/>
		<circle cx="330.337" cy="327.992" r="1.05"/>
		<circle cx="313.813" cy="343.371" r="1.05"/>
		<circle cx="357.112" cy="354.981" r="1.05"/>
		<circle cx="351.258" cy="329.173" r="1.05"/>
		<circle cx="358.161" cy="340.514" r="1.05"/>
		<circle cx="337.914" cy="338.415" r="1.05"/>
	</g>
	<g display="inline">
		<circle cx="310.465" cy="308.701" r="1.808"/>
		<circle cx="279.025" cy="317.995" r="1.808"/>
		<circle cx="288.41" cy="323.524" r="3.451"/>
		<circle cx="317.954" cy="314.089" r="3.451"/>
		<circle cx="296.322" cy="292.359" r="3.451"/>
		<circle cx="289.63" cy="303.797" r="2.231"/>
		<circle cx="294.092" cy="344.158" r="2.231"/>
		<circle cx="312.273" cy="327.374" r="2.231"/>
		<circle cx="279.783" cy="327.374" r="2.231"/>
		<circle cx="305.034" cy="320.073" r="2.231"/>
		<circle cx="273.086" cy="306.894" r="2.231"/>
		<circle cx="296.823" cy="315.138" r="1.05"/>
		<circle cx="286.009" cy="340.177" r="1.05"/>
		<circle cx="295.774" cy="327.374" r="1.05"/>
		<circle cx="280.832" cy="302.616" r="1.05"/>
		<circle cx="264.308" cy="317.995" r="1.05"/>
		<circle cx="307.607" cy="329.605" r="1.05"/>
		<circle cx="301.754" cy="303.797" r="1.05"/>
		<circle cx="308.657" cy="315.138" r="1.05"/>
		<circle cx="288.41" cy="313.039" r="1.05"/>
	</g>
	<g display="inline">
		<circle cx="317.25" cy="354.146" r="1.808"/>
		<circle cx="285.81" cy="363.44" r="1.808"/>
		<circle cx="295.195" cy="368.97" r="3.451"/>
		<circle cx="324.739" cy="359.534" r="3.451"/>
		<circle cx="303.107" cy="337.805" r="3.451"/>
		<circle cx="296.415" cy="349.242" r="2.231"/>
		<circle cx="300.877" cy="389.604" r="2.231"/>
		<circle cx="319.058" cy="372.819" r="2.231"/>
		<circle cx="286.568" cy="372.819" r="2.231"/>
		<circle cx="311.819" cy="365.519" r="2.231"/>
		<circle cx="279.871" cy="352.339" r="2.231"/>
		<circle cx="303.609" cy="360.583" r="1.05"/>
		<circle cx="292.794" cy="385.622" r="1.05"/>
		<circle cx="302.559" cy="372.819" r="1.05"/>
		<circle cx="287.617" cy="348.062" r="1.05"/>
		<circle cx="271.094" cy="363.44" r="1.05"/>
		<circle cx="314.392" cy="375.051" r="1.05"/>
		<circle cx="308.539" cy="349.242" r="1.05"/>
		<circle cx="315.442" cy="360.583" r="1.05"/>
		<circle cx="295.195" cy="358.484" r="1.05"/>
	</g>
	<g display="inline">
		<circle cx="366.216" cy="381.175" r="1.808"/>
		<circle cx="334.776" cy="390.469" r="1.808"/>
		<circle cx="344.161" cy="395.998" r="3.451"/>
		<circle cx="373.705" cy="386.562" r="3.451"/>
		<circle cx="352.073" cy="364.833" r="3.451"/>
		<circle cx="345.381" cy="376.271" r="2.231"/>
		<circle cx="349.843" cy="416.632" r="2.231"/>
		<circle cx="368.024" cy="399.848" r="2.231"/>
		<circle cx="335.534" cy="399.848" r="2.231"/>
		<circle cx="360.785" cy="392.547" r="2.231"/>
		<circle cx="328.837" cy="379.367" r="2.231"/>
		<circle cx="352.574" cy="387.611" r="1.05"/>
		<circle cx="341.76" cy="412.65" r="1.05"/>
		<circle cx="351.525" cy="399.848" r="1.05"/>
		<circle cx="336.583" cy="375.09" r="1.05"/>
		<circle cx="320.059" cy="390.469" r="1.05"/>
		<circle cx="363.358" cy="402.079" r="1.05"/>
		<circle cx="357.505" cy="376.271" r="1.05"/>
		<circle cx="364.408" cy="387.611" r="1.05"/>
		<circle cx="344.161" cy="385.513" r="1.05"/>
	</g>
	<g display="inline">
		<circle cx="398.464" cy="311.213" r="1.808"/>
		<circle cx="367.024" cy="320.506" r="1.808"/>
		<circle cx="376.409" cy="326.035" r="3.451"/>
		<circle cx="405.953" cy="316.6" r="3.451"/>
		<circle cx="384.321" cy="294.871" r="3.451"/>
		<circle cx="377.629" cy="306.309" r="2.231"/>
		<circle cx="382.091" cy="346.67" r="2.231"/>
		<circle cx="400.271" cy="329.886" r="2.23"/>
		<circle cx="367.782" cy="329.886" r="2.231"/>
		<circle cx="393.033" cy="322.585" r="2.231"/>
		<circle cx="361.085" cy="309.404" r="2.231"/>
		<circle cx="384.823" cy="317.648" r="1.05"/>
		<circle cx="374.008" cy="342.688" r="1.05"/>
		<circle cx="383.773" cy="329.886" r="1.05"/>
		<circle cx="368.831" cy="305.127" r="1.05"/>
		<circle cx="352.307" cy="320.506" r="1.05"/>
		<circle cx="395.606" cy="332.117" r="1.05"/>
		<circle cx="389.753" cy="306.309" r="1.05"/>
		<circle cx="396.656" cy="317.648" r="1.05"/>
		<circle cx="376.409" cy="315.551" r="1.05"/>
	</g>
	<g display="inline">
		<circle cx="407.886" cy="360.587" r="1.808"/>
		<circle cx="376.446" cy="369.881" r="1.808"/>
		<circle cx="385.831" cy="375.41" r="3.451"/>
		<circle cx="415.375" cy="365.975" r="3.451"/>
		<circle cx="393.743" cy="344.245" r="3.451"/>
		<circle cx="387.051" cy="355.683" r="2.231"/>
		<circle cx="391.512" cy="396.044" r="2.231"/>
		<circle cx="409.693" cy="379.261" r="2.23"/>
		<circle cx="377.204" cy="379.261" r="2.231"/>
		<circle cx="402.455" cy="371.96" r="2.23"/>
		<circle cx="370.507" cy="358.779" r="2.231"/>
		<circle cx="394.244" cy="367.023" r="1.05"/>
		<circle cx="383.43" cy="392.063" r="1.05"/>
		<circle cx="393.195" cy="379.261" r="1.05"/>
		<circle cx="378.253" cy="354.502" r="1.05"/>
		<circle cx="361.729" cy="369.881" r="1.05"/>
		<circle cx="405.028" cy="381.491" r="1.05"/>
		<circle cx="399.175" cy="355.683" r="1.05"/>
		<circle cx="406.078" cy="367.023" r="1.049"/>
		<circle cx="385.831" cy="364.925" r="1.05"/>
	</g>
	<g display="inline">
		<circle cx="447.478" cy="334.79" r="1.808"/>
		<circle cx="416.038" cy="344.084" r="1.808"/>
		<circle cx="425.423" cy="349.613" r="3.45"/>
		<circle cx="454.967" cy="340.178" r="3.451"/>
		<circle cx="433.335" cy="318.448" r="3.45"/>
		<circle cx="426.643" cy="329.886" r="2.23"/>
		<circle cx="431.104" cy="370.247" r="2.231"/>
		<circle cx="449.285" cy="353.463" r="2.23"/>
		<circle cx="416.795" cy="353.463" r="2.231"/>
		<circle cx="442.047" cy="346.162" r="2.23"/>
		<circle cx="410.098" cy="332.982" r="2.231"/>
		<circle cx="433.836" cy="341.227" r="1.049"/>
		<circle cx="423.022" cy="366.266" r="1.049"/>
		<circle cx="432.787" cy="353.463" r="1.049"/>
		<circle cx="417.845" cy="328.705" r="1.05"/>
		<circle cx="401.321" cy="344.084" r="1.05"/>
		<circle cx="444.62" cy="355.694" r="1.05"/>
		<circle cx="438.767" cy="329.886" r="1.05"/>
		<circle cx="445.669" cy="341.227" r="1.049"/>
		<circle cx="425.423" cy="339.128" r="1.05"/>
	</g>
	<g display="inline">
		<circle cx="477.373" cy="371.136" r="1.808"/>
		<circle cx="445.933" cy="380.43" r="1.808"/>
		<circle cx="455.318" cy="385.959" r="3.451"/>
		<circle cx="484.862" cy="376.523" r="3.451"/>
		<circle cx="463.23" cy="354.794" r="3.451"/>
		<circle cx="456.538" cy="366.231" r="2.231"/>
		<circle cx="460.999" cy="406.594" r="2.23"/>
		<circle cx="479.181" cy="389.809" r="2.23"/>
		<circle cx="446.691" cy="389.809" r="2.231"/>
		<circle cx="471.942" cy="382.508" r="2.231"/>
		<circle cx="439.994" cy="369.328" r="2.231"/>
		<circle cx="463.731" cy="377.572" r="1.049"/>
		<circle cx="452.917" cy="402.611" r="1.05"/>
		<circle cx="462.682" cy="389.809" r="1.05"/>
		<circle cx="447.74" cy="365.051" r="1.049"/>
		<circle cx="431.216" cy="380.43" r="1.05"/>
		<circle cx="474.515" cy="392.04" r="1.049"/>
		<circle cx="468.662" cy="366.231" r="1.049"/>
		<circle cx="475.564" cy="377.572" r="1.05"/>
		<circle cx="455.317" cy="375.474" r="1.05"/>
	</g>
	<g display="inline">
		<circle cx="515.867" cy="348.271" r="1.808"/>
		<circle cx="484.427" cy="357.564" r="1.808"/>
		<circle cx="493.812" cy="363.094" r="3.45"/>
		<circle cx="523.356" cy="353.658" r="3.451"/>
		<circle cx="501.725" cy="331.93" r="3.45"/>
		<circle cx="495.032" cy="343.367" r="2.23"/>
		<circle cx="499.494" cy="383.729" r="2.231"/>
		<circle cx="517.675" cy="366.944" r="2.23"/>
		<circle cx="485.185" cy="366.944" r="2.231"/>
		<circle cx="510.437" cy="359.644" r="2.23"/>
		<circle cx="478.488" cy="346.463" r="2.231"/>
		<circle cx="502.226" cy="354.707" r="1.049"/>
		<circle cx="491.412" cy="379.747" r="1.049"/>
		<circle cx="501.176" cy="366.944" r="1.049"/>
		<circle cx="486.234" cy="342.186" r="1.05"/>
		<circle cx="469.711" cy="357.564" r="1.05"/>
		<circle cx="513.01" cy="369.176" r="1.05"/>
		<circle cx="507.156" cy="343.367" r="1.05"/>
		<circle cx="514.059" cy="354.707" r="1.049"/>
		<circle cx="493.812" cy="352.609" r="1.05"/>
	</g>
	<g display="inline">
		<circle cx="554.562" cy="323.889" r="1.808"/>
		<circle cx="523.123" cy="333.182" r="1.808"/>
		<circle cx="532.508" cy="338.711" r="3.45"/>
		<circle cx="562.052" cy="329.275" r="3.451"/>
		<circle cx="540.42" cy="307.547" r="3.45"/>
		<circle cx="533.728" cy="318.984" r="2.23"/>
		<circle cx="538.189" cy="359.346" r="2.231"/>
		<circle cx="556.37" cy="342.562" r="2.23"/>
		<circle cx="523.88" cy="342.562" r="2.231"/>
		<circle cx="549.132" cy="335.261" r="2.23"/>
		<circle cx="517.183" cy="322.08" r="2.231"/>
		<circle cx="540.921" cy="330.324" r="1.049"/>
		<circle cx="530.107" cy="355.364" r="1.049"/>
		<circle cx="539.872" cy="342.562" r="1.049"/>
		<circle cx="524.93" cy="317.803" r="1.05"/>
		<circle cx="508.406" cy="333.182" r="1.05"/>
		<circle cx="551.705" cy="344.793" r="1.05"/>
		<circle cx="545.852" cy="318.984" r="1.05"/>
		<circle cx="552.754" cy="330.324" r="1.049"/>
		<circle cx="532.508" cy="328.227" r="1.05"/>
	</g>
	<g display="inline">
		<circle cx="525.289" cy="397.646" r="1.808"/>
		<circle cx="493.849" cy="406.939" r="1.808"/>
		<circle cx="503.234" cy="412.469" r="3.45"/>
		<circle cx="532.778" cy="403.033" r="3.451"/>
		<circle cx="511.146" cy="381.304" r="3.45"/>
		<circle cx="504.454" cy="392.741" r="2.23"/>
		<circle cx="508.916" cy="433.104" r="2.231"/>
		<circle cx="527.097" cy="416.318" r="2.23"/>
		<circle cx="494.607" cy="416.318" r="2.231"/>
		<circle cx="519.858" cy="409.018" r="2.23"/>
		<circle cx="487.91" cy="395.838" r="2.231"/>
		<circle cx="511.648" cy="404.082" r="1.049"/>
		<circle cx="500.833" cy="429.121" r="1.049"/>
		<circle cx="510.598" cy="416.318" r="1.049"/>
		<circle cx="495.656" cy="391.561" r="1.05"/>
		<circle cx="479.133" cy="406.939" r="1.05"/>
		<circle cx="522.432" cy="418.55" r="1.05"/>
		<circle cx="516.578" cy="392.741" r="1.05"/>
		<circle cx="523.481" cy="404.082" r="1.049"/>
		<circle cx="503.234" cy="401.983" r="1.05"/>
	</g>
	<g display="inline">
		<circle cx="564.881" cy="371.849" r="1.808"/>
		<circle cx="533.441" cy="381.143" r="1.808"/>
		<circle cx="542.826" cy="386.672" r="3.45"/>
		<circle cx="572.37" cy="377.236" r="3.451"/>
		<circle cx="550.738" cy="355.507" r="3.45"/>
		<circle cx="544.046" cy="366.944" r="2.23"/>
		<circle cx="548.507" cy="407.307" r="2.231"/>
		<circle cx="566.688" cy="390.521" r="2.23"/>
		<circle cx="534.199" cy="390.521" r="2.231"/>
		<circle cx="559.45" cy="383.221" r="2.23"/>
		<circle cx="527.501" cy="370.041" r="2.231"/>
		<circle cx="551.24" cy="378.285" r="1.049"/>
		<circle cx="540.425" cy="403.324" r="1.049"/>
		<circle cx="550.19" cy="390.521" r="1.049"/>
		<circle cx="535.248" cy="365.764" r="1.05"/>
		<circle cx="518.725" cy="381.143" r="1.05"/>
		<circle cx="562.023" cy="392.753" r="1.05"/>
		<circle cx="556.17" cy="366.944" r="1.05"/>
		<circle cx="563.073" cy="378.285" r="1.049"/>
		<circle cx="542.826" cy="376.187" r="1.05"/>
	</g>
	<g display="inline">
		<circle cx="566.641" cy="262.312" r="1.808"/>
		<circle cx="535.201" cy="271.605" r="1.808"/>
		<circle cx="544.586" cy="277.135" r="3.45"/>
		<circle cx="574.13" cy="267.699" r="3.451"/>
		<circle cx="552.498" cy="245.97" r="3.45"/>
		<circle cx="545.806" cy="257.407" r="2.23"/>
		<circle cx="550.267" cy="297.77" r="2.231"/>
		<circle cx="568.448" cy="280.984" r="2.23"/>
		<circle cx="535.958" cy="280.984" r="2.231"/>
		<circle cx="561.21" cy="273.684" r="2.23"/>
		<circle cx="529.261" cy="260.504" r="2.231"/>
		<circle cx="553" cy="268.748" r="1.049"/>
		<circle cx="542.185" cy="293.787" r="1.049"/>
		<circle cx="551.95" cy="280.984" r="1.049"/>
		<circle cx="537.008" cy="256.227" r="1.05"/>
		<circle cx="520.484" cy="271.605" r="1.05"/>
		<circle cx="563.783" cy="283.216" r="1.05"/>
		<circle cx="557.93" cy="257.407" r="1.05"/>
		<circle cx="564.833" cy="268.748" r="1.049"/>
		<circle cx="544.586" cy="266.649" r="1.05"/>
	</g>
	<g display="inline">
		<circle cx="509.577" cy="189.007" r="1.808"/>
		<circle cx="478.137" cy="198.301" r="1.808"/>
		<circle cx="487.522" cy="203.831" r="3.45"/>
		<circle cx="517.066" cy="194.395" r="3.451"/>
		<circle cx="495.435" cy="172.666" r="3.45"/>
		<circle cx="488.742" cy="184.103" r="2.23"/>
		<circle cx="493.204" cy="224.465" r="2.231"/>
		<circle cx="511.385" cy="207.68" r="2.23"/>
		<circle cx="478.895" cy="207.68" r="2.231"/>
		<circle cx="504.146" cy="200.379" r="2.23"/>
		<circle cx="472.198" cy="187.2" r="2.231"/>
		<circle cx="495.936" cy="195.444" r="1.049"/>
		<circle cx="485.122" cy="220.483" r="1.049"/>
		<circle cx="494.886" cy="207.68" r="1.049"/>
		<circle cx="479.944" cy="182.922" r="1.05"/>
		<circle cx="463.421" cy="198.301" r="1.05"/>
		<circle cx="506.72" cy="209.912" r="1.05"/>
		<circle cx="500.866" cy="184.103" r="1.05"/>
		<circle cx="507.769" cy="195.444" r="1.049"/>
		<circle cx="487.522" cy="193.345" r="1.05"/>
	</g>
	<g display="inline">
		<circle cx="461.703" cy="165.429" r="1.808"/>
		<circle cx="430.263" cy="174.723" r="1.808"/>
		<circle cx="439.648" cy="180.252" r="3.45"/>
		<circle cx="469.192" cy="170.817" r="3.451"/>
		<circle cx="447.561" cy="149.087" r="3.45"/>
		<circle cx="440.868" cy="160.525" r="2.23"/>
		<circle cx="445.33" cy="200.887" r="2.231"/>
		<circle cx="463.511" cy="184.102" r="2.23"/>
		<circle cx="431.021" cy="184.102" r="2.231"/>
		<circle cx="456.272" cy="176.801" r="2.23"/>
		<circle cx="424.324" cy="163.622" r="2.231"/>
		<circle cx="448.062" cy="171.866" r="1.049"/>
		<circle cx="437.248" cy="196.905" r="1.049"/>
		<circle cx="447.012" cy="184.102" r="1.049"/>
		<circle cx="432.07" cy="159.344" r="1.05"/>
		<circle cx="415.547" cy="174.723" r="1.05"/>
		<circle cx="458.846" cy="186.333" r="1.05"/>
		<circle cx="452.992" cy="160.525" r="1.05"/>
		<circle cx="459.895" cy="171.866" r="1.049"/>
		<circle cx="439.648" cy="169.767" r="1.05"/>
	</g>
	<g display="inline">
		<circle cx="555.665" cy="214.998" r="1.808"/>
		<circle cx="524.225" cy="224.292" r="1.808"/>
		<circle cx="533.61" cy="229.821" r="3.45"/>
		<circle cx="563.154" cy="220.386" r="3.451"/>
		<circle cx="541.522" cy="198.656" r="3.45"/>
		<circle cx="534.83" cy="210.094" r="2.23"/>
		<circle cx="539.292" cy="250.456" r="2.231"/>
		<circle cx="557.473" cy="233.671" r="2.23"/>
		<circle cx="524.983" cy="233.671" r="2.231"/>
		<circle cx="550.234" cy="226.37" r="2.23"/>
		<circle cx="518.286" cy="213.19" r="2.231"/>
		<circle cx="542.024" cy="221.435" r="1.049"/>
		<circle cx="531.209" cy="246.474" r="1.049"/>
		<circle cx="540.974" cy="233.671" r="1.049"/>
		<circle cx="526.032" cy="208.913" r="1.05"/>
		<circle cx="509.509" cy="224.292" r="1.05"/>
		<circle cx="552.808" cy="235.902" r="1.05"/>
		<circle cx="546.954" cy="210.094" r="1.05"/>
		<circle cx="553.857" cy="221.435" r="1.049"/>
		<circle cx="533.61" cy="219.336" r="1.05"/>
	</g>
	<g display="inline">
		<circle cx="393.492" cy="417.63" r="1.808"/>
		<circle cx="362.052" cy="426.924" r="1.808"/>
		<circle cx="371.438" cy="432.453" r="3.451"/>
		<circle cx="400.982" cy="423.018" r="3.451"/>
		<circle cx="379.35" cy="401.288" r="3.451"/>
		<circle cx="372.658" cy="412.726" r="2.231"/>
		<circle cx="377.119" cy="453.087" r="2.231"/>
		<circle cx="395.301" cy="436.303" r="2.231"/>
		<circle cx="362.811" cy="436.303" r="2.231"/>
		<circle cx="388.062" cy="429.002" r="2.231"/>
		<circle cx="356.114" cy="415.822" r="2.231"/>
		<circle cx="379.851" cy="424.066" r="1.05"/>
		<circle cx="369.037" cy="449.105" r="1.05"/>
		<circle cx="378.802" cy="436.303" r="1.05"/>
		<circle cx="363.86" cy="411.545" r="1.05"/>
		<circle cx="347.336" cy="426.924" r="1.05"/>
		<circle cx="390.635" cy="438.534" r="1.05"/>
		<circle cx="384.781" cy="412.726" r="1.05"/>
		<circle cx="391.685" cy="424.066" r="1.05"/>
		<circle cx="371.438" cy="421.968" r="1.05"/>
	</g>
	<g display="inline">
		<circle cx="436.751" cy="396.469" r="1.808"/>
		<circle cx="405.312" cy="405.762" r="1.808"/>
		<circle cx="414.697" cy="411.291" r="3.451"/>
		<circle cx="444.241" cy="401.855" r="3.451"/>
		<circle cx="422.61" cy="380.127" r="3.451"/>
		<circle cx="415.917" cy="391.564" r="2.231"/>
		<circle cx="420.379" cy="431.926" r="2.231"/>
		<circle cx="438.56" cy="415.142" r="2.23"/>
		<circle cx="406.07" cy="415.142" r="2.231"/>
		<circle cx="431.321" cy="407.841" r="2.231"/>
		<circle cx="399.373" cy="394.66" r="2.231"/>
		<circle cx="423.11" cy="402.904" r="1.05"/>
		<circle cx="412.296" cy="427.944" r="1.05"/>
		<circle cx="422.062" cy="415.142" r="1.05"/>
		<circle cx="407.119" cy="390.383" r="1.05"/>
		<circle cx="390.595" cy="405.762" r="1.05"/>
		<circle cx="433.894" cy="417.373" r="1.049"/>
		<circle cx="428.041" cy="391.564" r="1.049"/>
		<circle cx="434.944" cy="402.904" r="1.05"/>
		<circle cx="414.697" cy="400.807" r="1.05"/>
	</g>
	<g display="inline">
		<circle cx="444.605" cy="439.746" r="1.808"/>
		<circle cx="413.165" cy="449.04" r="1.808"/>
		<circle cx="422.551" cy="454.569" r="3.451"/>
		<circle cx="452.095" cy="445.134" r="3.451"/>
		<circle cx="430.463" cy="423.404" r="3.451"/>
		<circle cx="423.771" cy="434.842" r="2.231"/>
		<circle cx="428.232" cy="475.203" r="2.23"/>
		<circle cx="446.413" cy="458.42" r="2.23"/>
		<circle cx="413.924" cy="458.42" r="2.231"/>
		<circle cx="439.175" cy="451.119" r="2.23"/>
		<circle cx="407.226" cy="437.938" r="2.231"/>
		<circle cx="430.964" cy="446.183" r="1.05"/>
		<circle cx="420.15" cy="471.223" r="1.05"/>
		<circle cx="429.915" cy="458.42" r="1.05"/>
		<circle cx="414.973" cy="433.661" r="1.05"/>
		<circle cx="398.449" cy="449.04" r="1.05"/>
		<circle cx="441.748" cy="460.65" r="1.05"/>
		<circle cx="435.895" cy="434.842" r="1.05"/>
		<circle cx="442.797" cy="446.183" r="1.049"/>
		<circle cx="422.55" cy="444.084" r="1.049"/>
	</g>
	<g display="inline">
		<circle cx="485.766" cy="420.046" r="1.808"/>
		<circle cx="454.326" cy="429.34" r="1.808"/>
		<circle cx="463.711" cy="434.869" r="3.45"/>
		<circle cx="493.255" cy="425.434" r="3.451"/>
		<circle cx="471.623" cy="403.704" r="3.45"/>
		<circle cx="464.931" cy="415.142" r="2.23"/>
		<circle cx="469.392" cy="455.503" r="2.231"/>
		<circle cx="487.573" cy="438.719" r="2.23"/>
		<circle cx="455.083" cy="438.719" r="2.231"/>
		<circle cx="480.335" cy="431.418" r="2.23"/>
		<circle cx="448.386" cy="418.238" r="2.231"/>
		<circle cx="472.125" cy="426.482" r="1.049"/>
		<circle cx="461.31" cy="451.521" r="1.049"/>
		<circle cx="471.075" cy="438.719" r="1.049"/>
		<circle cx="456.133" cy="413.961" r="1.05"/>
		<circle cx="439.609" cy="429.34" r="1.05"/>
		<circle cx="482.908" cy="440.95" r="1.05"/>
		<circle cx="477.055" cy="415.142" r="1.05"/>
		<circle cx="483.958" cy="426.482" r="1.049"/>
		<circle cx="463.711" cy="424.384" r="1.05"/>
	</g>
</g>
<g id="Epizentrum_Verbr." display="none">
	<path display="inline" fill="none" stroke="#000000" stroke-miterlimit="10" d="M412.588,317.19
		c-5.02-2.149-9.044-6.174-11.193-11.193"/>
	<path display="inline" fill="none" stroke="#000000" stroke-miterlimit="10" d="M429.301,278.09
		c5.021,2.148,9.046,6.173,11.194,11.194"/>
	<path display="inline" fill="none" stroke="#000000" stroke-miterlimit="10" d="M440.495,305.997
		c-2.149,5.021-6.174,9.045-11.194,11.193"/>
	<path display="inline" fill="none" stroke="#000000" stroke-miterlimit="10" d="M401.395,289.284
		c2.149-5.021,6.173-9.044,11.193-11.193"/>
	<path display="inline" fill="none" stroke="#000000" stroke-miterlimit="10" d="M429.301,263.207
		c12.854,3.109,22.968,13.222,26.077,26.077"/>
	<path display="inline" fill="none" stroke="#000000" stroke-miterlimit="10" d="M412.588,332.072
		c-12.854-3.109-22.966-13.222-26.076-26.075"/>
	<path display="inline" fill="none" stroke="#000000" stroke-miterlimit="10" d="M386.512,289.284
		c3.109-12.854,13.221-22.967,26.076-26.076"/>
	<path display="inline" fill="none" stroke="#000000" stroke-miterlimit="10" d="M455.377,305.997
		c-3.109,12.854-13.223,22.967-26.076,26.076"/>
	<path display="inline" fill="none" stroke="#000000" stroke-miterlimit="10" d="M412.588,353.715
		c-24.62-3.639-44.08-23.1-47.718-47.718"/>
	<path display="inline" fill="none" stroke="#000000" stroke-miterlimit="10" d="M477.02,289.284
		c-3.638-24.621-23.1-44.081-47.719-47.719"/>
	<path display="inline" fill="none" stroke="#000000" stroke-miterlimit="10" d="M477.02,305.997
		c-3.639,24.619-23.1,44.08-47.719,47.718"/>
	<path display="inline" fill="none" stroke="#000000" stroke-miterlimit="10" d="M364.87,289.284
		c3.638-24.62,23.098-44.08,47.718-47.718"/>
	<path display="inline" fill="none" stroke="#000000" stroke-miterlimit="10" d="M336.318,289.284
		c3.931-40.293,35.976-72.338,76.27-76.27"/>
	<path display="inline" fill="none" stroke="#000000" stroke-miterlimit="10" d="M412.588,382.267
		c-40.293-3.932-72.338-35.979-76.27-76.271"/>
	<path display="inline" fill="none" stroke="#000000" stroke-miterlimit="10" d="M505.571,305.997
		c-3.932,40.291-35.979,72.338-76.271,76.27"/>
	<path display="inline" fill="none" stroke="#000000" stroke-miterlimit="10" d="M429.301,213.014
		c40.292,3.931,72.339,35.977,76.271,76.27"/>
	<circle display="inline" cx="420.945" cy="297.641" r="8.356"/>
</g>
<g id="Riss_Entstehung" display="none">
	<polyline display="inline" fill="none" stroke="#000000" stroke-width="3" stroke-miterlimit="10" points="420.356,297.64 
		429.885,318.448 411.924,342.162 443.123,370.59 406.759,406.875 475.065,467.685 383.537,570.496 	"/>
</g>
<g id="Riss_Kopie" display="none">
	<polyline display="inline" fill="none" stroke="#000000" stroke-width="3" stroke-miterlimit="10" points="367.651,472.267 
		454.139,282.63 382.483,164.136 	"/>
</g>
<g id="Riss_Kopie_Kopie" display="none">
	
		<line display="inline" fill="none" stroke="#E30613" stroke-width="3" stroke-miterlimit="10" x1="510.015" y1="363.119" x2="504.407" y2="363.119"/>
	
		<line display="inline" fill="none" stroke="#E30613" stroke-width="3" stroke-miterlimit="10" x1="536.91" y1="363.119" x2="531.302" y2="363.119"/>
	
		<line display="inline" fill="none" stroke="#E30613" stroke-width="3" stroke-miterlimit="10" x1="442.357" y1="330.366" x2="444.297" y2="331.5"/>
	<path display="inline" fill="none" stroke="#E30613" stroke-width="3" stroke-miterlimit="10" d="M409.063,310.894
		c-1.642,1.226-2.71,3.179-2.71,5.386c0,3.714-3.011,6.724-6.725,6.724c-3.713,0-6.724-3.01-6.724-6.724s-3.01-6.724-6.724-6.724
		c-3.713,0-6.724,3.01-6.724,6.724c0,2.823-1.741,5.235-4.206,6.231"/>
	<path display="inline" fill="none" stroke="#E30613" stroke-width="3" stroke-miterlimit="10" d="M366.072,317.142
		c-0.037-0.283-0.062-0.569-0.062-0.862c0-3.714-3.01-6.724-6.724-6.724c-1.484,0-2.851,0.486-3.963,1.3"/>
	<path display="inline" fill="none" stroke="#E30613" stroke-width="3" stroke-miterlimit="10" d="M419.874,317.216
		c0.457,3.27,3.255,5.787,6.651,5.787c0.864,0,1.688-0.169,2.447-0.466"/>
	<path display="inline" fill="none" stroke="#E30613" stroke-width="3" stroke-miterlimit="10" d="M433.249,336.646
		c0,3.714-3.011,6.724-6.725,6.724s-6.724-3.01-6.724-6.724s-3.01-6.724-6.724-6.724s-6.724,3.01-6.724,6.724
		c0,1.276-0.362,2.465-0.979,3.481"/>
	<path display="inline" fill="none" stroke="#E30613" stroke-width="3" stroke-miterlimit="10" d="M542.981,331.727
		c-1.32,1.228-2.151,2.975-2.151,4.92c0,3.714-3.01,6.724-6.725,6.724c-3.713,0-6.723-3.01-6.723-6.724
		c0-1.945-0.831-3.692-2.151-4.92"/>
	<path display="inline" fill="none" stroke="#E30613" stroke-width="3" stroke-miterlimit="10" d="M516.087,331.727
		c-1.32,1.228-2.151,2.975-2.151,4.92c0,3.714-3.012,6.724-6.725,6.724c-3.714,0-6.724-3.01-6.724-6.724
		c0-1.945-0.831-3.692-2.151-4.92"/>
	<path display="inline" fill="none" stroke="#E30613" stroke-width="3" stroke-miterlimit="10" d="M442.357,330.366
		c-0.742-0.282-1.544-0.443-2.385-0.443c-3.713,0-6.724,3.01-6.724,6.724"/>
	<path display="inline" fill="none" stroke="#E30613" stroke-width="3" stroke-miterlimit="10" d="M489.19,331.727
		c-1.32,1.228-2.151,2.975-2.151,4.92c0,3.714-3.01,6.724-6.724,6.724s-6.724-3.01-6.724-6.724c0-1.945-0.831-3.692-2.151-4.92"/>
	<path display="inline" fill="none" stroke="#E30613" stroke-width="3" stroke-miterlimit="10" d="M462.296,331.727
		c-1.32,1.228-2.151,2.975-2.151,4.92c0,3.714-3.011,6.724-6.725,6.724c-3.713,0-6.723-3.01-6.723-6.724
		c0-2.066-0.934-3.913-2.4-5.146"/>
	<path display="inline" fill="none" stroke="#E30613" stroke-width="3" stroke-miterlimit="10" d="M444.297,331.5
		c-0.573-0.481-1.229-0.864-1.939-1.134"/>
	<path display="inline" fill="none" stroke="#E30613" stroke-width="3" stroke-miterlimit="10" d="M477.512,363.119
		c-2.312-1.063-3.92-3.394-3.92-6.105c0-3.714-3.01-6.724-6.724-6.724s-6.724,3.01-6.724,6.724c0,2.712-1.608,5.042-3.921,6.105"/>
	<path display="inline" fill="none" stroke="#E30613" stroke-width="3" stroke-miterlimit="10" d="M504.407,363.119
		c-2.312-1.063-3.92-3.394-3.92-6.105c0-3.714-3.011-6.724-6.724-6.724c-3.714,0-6.725,3.01-6.725,6.724
		c0,2.712-1.608,5.042-3.92,6.105"/>
	<path display="inline" fill="none" stroke="#E30613" stroke-width="3" stroke-miterlimit="10" d="M433.249,357.014
		c0-0.191,0.013-0.379,0.028-0.565"/>
	<path display="inline" fill="none" stroke="#E30613" stroke-width="3" stroke-miterlimit="10" d="M450.616,363.119
		c-2.311-1.063-3.919-3.394-3.919-6.105c0-3.714-3.011-6.724-6.725-6.724c-3.522,0-6.407,2.71-6.695,6.158"/>
	<path display="inline" fill="none" stroke="#E30613" stroke-width="3" stroke-miterlimit="10" d="M558.197,363.119
		c-2.312-1.063-3.92-3.394-3.92-6.105c0-3.714-3.01-6.724-6.724-6.724s-6.724,3.01-6.724,6.724c0,2.712-1.608,5.042-3.92,6.105"/>
	<path display="inline" fill="none" stroke="#E30613" stroke-width="3" stroke-miterlimit="10" d="M531.302,363.119
		c-2.311-1.063-3.919-3.394-3.919-6.105c0-3.714-3.011-6.724-6.725-6.724c-3.713,0-6.723,3.01-6.723,6.724
		c0,2.712-1.609,5.042-3.921,6.105"/>
	<g display="inline">
		<polyline fill="none" stroke="#000000" stroke-width="3" stroke-miterlimit="10" points="603.178,363.119 444.684,363.119 
			337.333,300.334 235.333,300.334 		"/>
		<polyline fill="none" stroke="#000000" stroke-width="3" stroke-miterlimit="10" points="603.178,331.727 444.684,331.727 
			337.333,268.941 235.333,268.941 		"/>
	</g>
</g>
<g id="Riss_Kopie_Kopie_Kopie" display="none">
	<g display="inline">
		<path fill="none" stroke="#E30613" stroke-width="3" stroke-miterlimit="10" d="M487.047,316.279L487.047,316.279
			c0,3.714-3.01,6.724-6.725,6.724c-3.713,0-6.723-3.01-6.723-6.724l0,0c0-3.714-3.01-6.724-6.725-6.724
			c-3.713,0-6.723,3.01-6.723,6.724l0,0l0,0c0,3.714-3.012,6.724-6.725,6.724s-6.725-3.01-6.725-6.724l0,0
			c0-3.714-3.01-6.724-6.723-6.724s-6.725,3.01-6.725,6.724l0,0l0,0c0,3.714-3.01,6.724-6.725,6.724
			c-3.713,0-6.723-3.01-6.723-6.724l0,0c0-3.714-3.01-6.724-6.724-6.724s-6.724,3.01-6.724,6.724l0,0l0,0
			c0,3.714-3.011,6.724-6.724,6.724c-3.714,0-6.724-3.01-6.724-6.724l0,0c0-3.714-3.01-6.724-6.724-6.724
			c-3.714,0-6.724,3.01-6.724,6.724l0,0l0,0c0,3.714-3.01,6.724-6.724,6.724c-3.713,0-6.724-3.01-6.724-6.724l0,0
			c0-3.714-3.01-6.724-6.724-6.724s-6.724,3.01-6.724,6.724l0,0l0,0c0,3.714-3.011,6.724-6.724,6.724s-6.724-3.01-6.724-6.724l0,0
			c0-3.714-3.01-6.724-6.724-6.724c-3.713,0-6.724,3.01-6.724,6.724l0,0"/>
		<path fill="none" stroke="#E30613" stroke-width="3" stroke-miterlimit="10" d="M648.42,316.279L648.42,316.279
			c0,3.714-3.012,6.724-6.725,6.724c-3.715,0-6.725-3.01-6.725-6.724l0,0c0-3.714-3.01-6.724-6.723-6.724
			c-3.715,0-6.725,3.01-6.725,6.724l0,0l0,0c0,3.714-3.01,6.724-6.725,6.724c-3.713,0-6.723-3.01-6.723-6.724l0,0
			c0-3.714-3.01-6.724-6.725-6.724c-3.713,0-6.723,3.01-6.723,6.724l0,0l0,0c0,3.714-3.01,6.724-6.725,6.724
			c-3.713,0-6.723-3.01-6.723-6.724l0,0c0-3.714-3.012-6.724-6.725-6.724s-6.723,3.01-6.723,6.724l0,0l0,0
			c0,3.714-3.012,6.724-6.725,6.724c-3.715,0-6.725-3.01-6.725-6.724l0,0c0-3.714-3.01-6.724-6.723-6.724
			c-3.715,0-6.725,3.01-6.725,6.724l0,0l0,0c0,3.714-3.01,6.724-6.725,6.724c-3.713,0-6.723-3.01-6.723-6.724l0,0
			c0-3.714-3.01-6.724-6.725-6.724c-3.713,0-6.723,3.01-6.723,6.724l0,0l0,0c0,3.714-3.012,6.724-6.725,6.724
			s-6.723-3.01-6.723-6.724l0,0c0-3.714-3.012-6.724-6.725-6.724s-6.725,3.01-6.725,6.724l0,0"/>
		<path fill="none" stroke="#E30613" stroke-width="3" stroke-miterlimit="10" d="M487.047,336.646L487.047,336.646
			c0,3.714-3.01,6.724-6.725,6.724c-3.713,0-6.723-3.01-6.723-6.724l0,0c0-3.714-3.01-6.724-6.725-6.724
			c-3.713,0-6.723,3.01-6.723,6.724l0,0l0,0c0,3.714-3.012,6.724-6.725,6.724s-6.725-3.01-6.725-6.724l0,0
			c0-3.714-3.01-6.724-6.723-6.724s-6.725,3.01-6.725,6.724l0,0l0,0c0,3.714-3.01,6.724-6.725,6.724
			c-3.713,0-6.723-3.01-6.723-6.724l0,0c0-3.714-3.01-6.724-6.724-6.724s-6.724,3.01-6.724,6.724l0,0l0,0
			c0,3.714-3.011,6.724-6.724,6.724c-3.714,0-6.724-3.01-6.724-6.724l0,0c0-3.714-3.01-6.724-6.724-6.724
			c-3.714,0-6.724,3.01-6.724,6.724l0,0l0,0c0,3.714-3.01,6.724-6.724,6.724c-3.713,0-6.724-3.01-6.724-6.724l0,0
			c0-3.714-3.01-6.724-6.724-6.724s-6.724,3.01-6.724,6.724l0,0l0,0c0,3.714-3.011,6.724-6.724,6.724s-6.724-3.01-6.724-6.724l0,0
			c0-3.714-3.01-6.724-6.724-6.724c-3.713,0-6.724,3.01-6.724,6.724l0,0"/>
		<path fill="none" stroke="#E30613" stroke-width="3" stroke-miterlimit="10" d="M648.42,336.646L648.42,336.646
			c0,3.714-3.012,6.724-6.725,6.724c-3.715,0-6.725-3.01-6.725-6.724l0,0c0-3.714-3.01-6.724-6.723-6.724
			c-3.715,0-6.725,3.01-6.725,6.724l0,0l0,0c0,3.714-3.01,6.724-6.725,6.724c-3.713,0-6.723-3.01-6.723-6.724l0,0
			c0-3.714-3.01-6.724-6.725-6.724c-3.713,0-6.723,3.01-6.723,6.724l0,0l0,0c0,3.714-3.01,6.724-6.725,6.724
			c-3.713,0-6.723-3.01-6.723-6.724l0,0c0-3.714-3.012-6.724-6.725-6.724s-6.723,3.01-6.723,6.724l0,0l0,0
			c0,3.714-3.012,6.724-6.725,6.724c-3.715,0-6.725-3.01-6.725-6.724l0,0c0-3.714-3.01-6.724-6.723-6.724
			c-3.715,0-6.725,3.01-6.725,6.724l0,0l0,0c0,3.714-3.01,6.724-6.725,6.724c-3.713,0-6.723-3.01-6.723-6.724l0,0
			c0-3.714-3.01-6.724-6.725-6.724c-3.713,0-6.723,3.01-6.723,6.724l0,0l0,0c0,3.714-3.012,6.724-6.725,6.724
			s-6.723-3.01-6.723-6.724l0,0c0-3.714-3.012-6.724-6.725-6.724s-6.725,3.01-6.725,6.724l0,0"/>
		<path fill="none" stroke="#E30613" stroke-width="3" stroke-miterlimit="10" d="M487.047,357.014L487.047,357.014
			c0,3.714-3.01,6.724-6.725,6.724c-3.713,0-6.723-3.01-6.723-6.724l0,0c0-3.714-3.01-6.724-6.725-6.724
			c-3.713,0-6.723,3.01-6.723,6.724l0,0l0,0c0,3.714-3.012,6.724-6.725,6.724s-6.725-3.01-6.725-6.724l0,0
			c0-3.714-3.01-6.724-6.723-6.724s-6.725,3.01-6.725,6.724l0,0l0,0c0,3.714-3.01,6.724-6.725,6.724
			c-3.713,0-6.723-3.01-6.723-6.724l0,0c0-3.714-3.01-6.724-6.724-6.724s-6.724,3.01-6.724,6.724l0,0l0,0
			c0,3.714-3.011,6.724-6.724,6.724c-3.714,0-6.724-3.01-6.724-6.724l0,0c0-3.714-3.01-6.724-6.724-6.724
			c-3.714,0-6.724,3.01-6.724,6.724l0,0l0,0c0,3.714-3.01,6.724-6.724,6.724c-3.713,0-6.724-3.01-6.724-6.724l0,0
			c0-3.714-3.01-6.724-6.724-6.724s-6.724,3.01-6.724,6.724l0,0l0,0c0,3.714-3.011,6.724-6.724,6.724s-6.724-3.01-6.724-6.724l0,0
			c0-3.714-3.01-6.724-6.724-6.724c-3.713,0-6.724,3.01-6.724,6.724l0,0"/>
		<path fill="none" stroke="#E30613" stroke-width="3" stroke-miterlimit="10" d="M648.42,357.014L648.42,357.014
			c0,3.714-3.012,6.724-6.725,6.724c-3.715,0-6.725-3.01-6.725-6.724l0,0c0-3.714-3.01-6.724-6.723-6.724
			c-3.715,0-6.725,3.01-6.725,6.724l0,0l0,0c0,3.714-3.01,6.724-6.725,6.724c-3.713,0-6.723-3.01-6.723-6.724l0,0
			c0-3.714-3.01-6.724-6.725-6.724c-3.713,0-6.723,3.01-6.723,6.724l0,0l0,0c0,3.714-3.01,6.724-6.725,6.724
			c-3.713,0-6.723-3.01-6.723-6.724l0,0c0-3.714-3.012-6.724-6.725-6.724s-6.723,3.01-6.723,6.724l0,0l0,0
			c0,3.714-3.012,6.724-6.725,6.724c-3.715,0-6.725-3.01-6.725-6.724l0,0c0-3.714-3.01-6.724-6.723-6.724
			c-3.715,0-6.725,3.01-6.725,6.724l0,0l0,0c0,3.714-3.01,6.724-6.725,6.724c-3.713,0-6.723-3.01-6.723-6.724l0,0
			c0-3.714-3.01-6.724-6.725-6.724c-3.713,0-6.723,3.01-6.723,6.724l0,0l0,0c0,3.714-3.012,6.724-6.725,6.724
			s-6.723-3.01-6.723-6.724l0,0c0-3.714-3.012-6.724-6.725-6.724s-6.725,3.01-6.725,6.724l0,0"/>
		<path fill="none" stroke="#E30613" stroke-width="3" stroke-miterlimit="10" d="M487.047,377.381L487.047,377.381
			c0,3.714-3.01,6.724-6.725,6.724c-3.713,0-6.723-3.01-6.723-6.724l0,0c0-3.714-3.01-6.724-6.725-6.724
			c-3.713,0-6.723,3.01-6.723,6.724l0,0l0,0c0,3.714-3.012,6.724-6.725,6.724s-6.725-3.01-6.725-6.724l0,0
			c0-3.714-3.01-6.724-6.723-6.724s-6.725,3.01-6.725,6.724l0,0l0,0c0,3.714-3.01,6.724-6.725,6.724
			c-3.713,0-6.723-3.01-6.723-6.724l0,0c0-3.714-3.01-6.724-6.724-6.724s-6.724,3.01-6.724,6.724l0,0l0,0
			c0,3.714-3.011,6.724-6.724,6.724c-3.714,0-6.724-3.01-6.724-6.724l0,0c0-3.714-3.01-6.724-6.724-6.724
			c-3.714,0-6.724,3.01-6.724,6.724l0,0l0,0c0,3.714-3.01,6.724-6.724,6.724c-3.713,0-6.724-3.01-6.724-6.724l0,0
			c0-3.714-3.01-6.724-6.724-6.724s-6.724,3.01-6.724,6.724l0,0l0,0c0,3.714-3.011,6.724-6.724,6.724s-6.724-3.01-6.724-6.724l0,0
			c0-3.714-3.01-6.724-6.724-6.724c-3.713,0-6.724,3.01-6.724,6.724l0,0"/>
		<path fill="none" stroke="#E30613" stroke-width="3" stroke-miterlimit="10" d="M648.42,377.381L648.42,377.381
			c0,3.714-3.012,6.724-6.725,6.724c-3.715,0-6.725-3.01-6.725-6.724l0,0c0-3.714-3.01-6.724-6.723-6.724
			c-3.715,0-6.725,3.01-6.725,6.724l0,0l0,0c0,3.714-3.01,6.724-6.725,6.724c-3.713,0-6.723-3.01-6.723-6.724l0,0
			c0-3.714-3.01-6.724-6.725-6.724c-3.713,0-6.723,3.01-6.723,6.724l0,0l0,0c0,3.714-3.01,6.724-6.725,6.724
			c-3.713,0-6.723-3.01-6.723-6.724l0,0c0-3.714-3.012-6.724-6.725-6.724s-6.723,3.01-6.723,6.724l0,0l0,0
			c0,3.714-3.012,6.724-6.725,6.724c-3.715,0-6.725-3.01-6.725-6.724l0,0c0-3.714-3.01-6.724-6.723-6.724
			c-3.715,0-6.725,3.01-6.725,6.724l0,0l0,0c0,3.714-3.01,6.724-6.725,6.724c-3.713,0-6.723-3.01-6.723-6.724l0,0
			c0-3.714-3.01-6.724-6.725-6.724c-3.713,0-6.723,3.01-6.723,6.724l0,0l0,0c0,3.714-3.012,6.724-6.725,6.724
			s-6.723-3.01-6.723-6.724l0,0c0-3.714-3.012-6.724-6.725-6.724s-6.725,3.01-6.725,6.724l0,0"/>
		<path fill="none" stroke="#E30613" stroke-width="3" stroke-miterlimit="10" d="M487.047,397.748L487.047,397.748
			c0,3.714-3.01,6.724-6.725,6.724c-3.713,0-6.723-3.01-6.723-6.724l0,0c0-3.714-3.01-6.724-6.725-6.724
			c-3.713,0-6.723,3.01-6.723,6.724l0,0l0,0c0,3.714-3.012,6.724-6.725,6.724s-6.725-3.01-6.725-6.724l0,0
			c0-3.714-3.01-6.724-6.723-6.724s-6.725,3.01-6.725,6.724l0,0l0,0c0,3.714-3.01,6.724-6.725,6.724
			c-3.713,0-6.723-3.01-6.723-6.724l0,0c0-3.714-3.01-6.724-6.724-6.724s-6.724,3.01-6.724,6.724l0,0l0,0
			c0,3.714-3.011,6.724-6.724,6.724c-3.714,0-6.724-3.01-6.724-6.724l0,0c0-3.714-3.01-6.724-6.724-6.724
			c-3.714,0-6.724,3.01-6.724,6.724l0,0l0,0c0,3.714-3.01,6.724-6.724,6.724c-3.713,0-6.724-3.01-6.724-6.724l0,0
			c0-3.714-3.01-6.724-6.724-6.724s-6.724,3.01-6.724,6.724l0,0l0,0c0,3.714-3.011,6.724-6.724,6.724s-6.724-3.01-6.724-6.724l0,0
			c0-3.714-3.01-6.724-6.724-6.724c-3.713,0-6.724,3.01-6.724,6.724l0,0"/>
		<path fill="none" stroke="#E30613" stroke-width="3" stroke-miterlimit="10" d="M648.42,397.748L648.42,397.748
			c0,3.714-3.012,6.724-6.725,6.724c-3.715,0-6.725-3.01-6.725-6.724l0,0c0-3.714-3.01-6.724-6.723-6.724
			c-3.715,0-6.725,3.01-6.725,6.724l0,0l0,0c0,3.714-3.01,6.724-6.725,6.724c-3.713,0-6.723-3.01-6.723-6.724l0,0
			c0-3.714-3.01-6.724-6.725-6.724c-3.713,0-6.723,3.01-6.723,6.724l0,0l0,0c0,3.714-3.01,6.724-6.725,6.724
			c-3.713,0-6.723-3.01-6.723-6.724l0,0c0-3.714-3.012-6.724-6.725-6.724s-6.723,3.01-6.723,6.724l0,0l0,0
			c0,3.714-3.012,6.724-6.725,6.724c-3.715,0-6.725-3.01-6.725-6.724l0,0c0-3.714-3.01-6.724-6.723-6.724
			c-3.715,0-6.725,3.01-6.725,6.724l0,0l0,0c0,3.714-3.01,6.724-6.725,6.724c-3.713,0-6.723-3.01-6.723-6.724l0,0
			c0-3.714-3.01-6.724-6.725-6.724c-3.713,0-6.723,3.01-6.723,6.724l0,0l0,0c0,3.714-3.012,6.724-6.725,6.724
			s-6.723-3.01-6.723-6.724l0,0c0-3.714-3.012-6.724-6.725-6.724s-6.725,3.01-6.725,6.724l0,0"/>
	</g>
	<polygon display="inline" points="337.333,300.334 444.684,363.119 663.178,363.119 663.178,301 	"/>
</g>
<g id="Ebene_2" display="none">
	<path display="inline" fill="#FFFFFF" d="M0,0v595.28h841.89V0H0z M420.944,432.468c-74.463,0-134.827-60.364-134.827-134.827
		c0-74.464,60.364-134.828,134.827-134.828s134.828,60.364,134.828,134.828C555.772,372.104,495.407,432.468,420.944,432.468z"/>
	
		<circle display="inline" fill="none" stroke="#E30613" stroke-width="7" stroke-miterlimit="10" cx="420.945" cy="297.641" r="134.828"/>
</g>
</svg>
