<?xml version="1.0" encoding="utf-8"?>
<!-- Generator: Adobe Illustrator 17.1.0, SVG Export Plug-In . SVG Version: 6.00 Build 0)  -->
<!DOCTYPE svg PUBLIC "-//W3C//DTD SVG 1.1//EN" "http://www.w3.org/Graphics/SVG/1.1/DTD/svg11.dtd">
<svg version="1.1" xmlns="http://www.w3.org/2000/svg" xmlns:xlink="http://www.w3.org/1999/xlink" x="0px" y="0px"
	 viewBox="198.7 160.7 23.7 12.3" enable-background="new 198.7 160.7 23.7 12.3" xml:space="preserve">
<g id="Layer_1" display="none">
	<g display="inline">
		<polygon stroke="#000000" stroke-miterlimit="10" points="397.2,190.7 417.5,190.7 404.9,199.3 		"/>
		<polygon fill="none" stroke="#000000" stroke-miterlimit="10" points="401.3,190.7 417.5,190.7 409,199.3 		"/>
	</g>
	<g id="Epizentrum">
		<circle display="inline" cx="420.9" cy="297.6" r="8.4"/>
	</g>
	<g id="Erde">
		<circle display="inline" cx="420.9" cy="297.6" r="8.4"/>
		<g display="inline">
			<circle cx="382.1" cy="213.6" r="1.8"/>
			<circle cx="350.7" cy="222.9" r="1.8"/>
			<circle cx="360.1" cy="228.4" r="3.5"/>
			<circle cx="389.6" cy="219" r="3.5"/>
			<circle cx="368" cy="197.2" r="3.5"/>
			<circle cx="361.3" cy="208.7" r="2.2"/>
			<circle cx="365.8" cy="249" r="2.2"/>
			<circle cx="383.9" cy="232.3" r="2.2"/>
			<circle cx="351.5" cy="232.3" r="2.2"/>
			<circle cx="376.7" cy="225" r="2.2"/>
			<circle cx="344.8" cy="211.8" r="2.2"/>
			<circle cx="368.5" cy="220" r="1.1"/>
			<circle cx="357.7" cy="245.1" r="1.1"/>
			<circle cx="367.4" cy="232.3" r="1.1"/>
			<circle cx="352.5" cy="207.5" r="1.1"/>
			<circle cx="336" cy="222.9" r="1.1"/>
			<circle cx="379.3" cy="234.5" r="1.1"/>
			<circle cx="373.4" cy="208.7" r="1.1"/>
			<circle cx="380.3" cy="220" r="1.1"/>
			<circle cx="360.1" cy="217.9" r="1.1"/>
		</g>
		<g display="inline">
			<circle cx="420.6" cy="190.7" r="1.8"/>
			<circle cx="389.2" cy="200" r="1.8"/>
			<circle cx="398.6" cy="205.5" r="3.5"/>
			<circle cx="428.1" cy="196.1" r="3.5"/>
			<circle cx="406.5" cy="174.4" r="3.5"/>
			<circle cx="399.8" cy="185.8" r="2.2"/>
			<circle cx="404.3" cy="226.2" r="2.2"/>
			<circle cx="422.4" cy="209.4" r="2.2"/>
			<circle cx="390" cy="209.4" r="2.2"/>
			<circle cx="415.2" cy="202.1" r="2.2"/>
			<circle cx="383.3" cy="188.9" r="2.2"/>
			<circle cx="407" cy="197.2" r="1.1"/>
			<circle cx="396.2" cy="222.2" r="1.1"/>
			<circle cx="405.9" cy="209.4" r="1.1"/>
			<circle cx="391" cy="184.6" r="1.1"/>
			<circle cx="374.5" cy="200" r="1.1"/>
			<circle cx="417.8" cy="211.6" r="1.1"/>
			<circle cx="411.9" cy="185.8" r="1.1"/>
			<circle cx="418.8" cy="197.2" r="1.1"/>
			<circle cx="398.6" cy="195.1" r="1.1"/>
		</g>
		<g display="inline">
			<circle cx="392.6" cy="156.3" r="1.8"/>
			<circle cx="361.2" cy="165.6" r="1.8"/>
			<circle cx="370.6" cy="171.1" r="3.5"/>
			<circle cx="400.1" cy="161.7" r="3.5"/>
			<circle cx="378.5" cy="139.9" r="3.5"/>
			<circle cx="371.8" cy="151.4" r="2.2"/>
			<circle cx="376.2" cy="191.7" r="2.2"/>
			<circle cx="394.4" cy="175" r="2.2"/>
			<circle cx="361.9" cy="175" r="2.2"/>
			<circle cx="387.2" cy="167.7" r="2.2"/>
			<circle cx="355.2" cy="154.5" r="2.2"/>
			<circle cx="379" cy="162.7" r="1.1"/>
			<circle cx="368.2" cy="187.8" r="1.1"/>
			<circle cx="377.9" cy="175" r="1.1"/>
			<circle cx="363" cy="150.2" r="1.1"/>
			<circle cx="346.5" cy="165.6" r="1.1"/>
			<circle cx="389.8" cy="177.2" r="1.1"/>
			<circle cx="383.9" cy="151.4" r="1.1"/>
			<circle cx="390.8" cy="162.7" r="1.1"/>
			<circle cx="370.6" cy="160.6" r="1.1"/>
		</g>
		<g display="inline">
			<circle cx="351" cy="180.8" r="1.8"/>
			<circle cx="319.5" cy="190.1" r="1.8"/>
			<circle cx="328.9" cy="195.6" r="3.5"/>
			<circle cx="358.5" cy="186.2" r="3.5"/>
			<circle cx="336.8" cy="164.4" r="3.5"/>
			<circle cx="330.2" cy="175.9" r="2.2"/>
			<circle cx="334.6" cy="216.2" r="2.2"/>
			<circle cx="352.8" cy="199.4" r="2.2"/>
			<circle cx="320.3" cy="199.4" r="2.2"/>
			<circle cx="345.6" cy="192.1" r="2.2"/>
			<circle cx="313.6" cy="179" r="2.2"/>
			<circle cx="337.3" cy="187.2" r="1.1"/>
			<circle cx="326.5" cy="212.2" r="1.1"/>
			<circle cx="336.3" cy="199.4" r="1.1"/>
			<circle cx="321.4" cy="174.7" r="1.1"/>
			<circle cx="304.8" cy="190.1" r="1.1"/>
			<circle cx="348.1" cy="201.7" r="1.1"/>
			<circle cx="342.3" cy="175.9" r="1.1"/>
			<circle cx="349.2" cy="187.2" r="1.1"/>
			<circle cx="328.9" cy="185.1" r="1.1"/>
		</g>
		<g display="inline">
			<circle cx="430.1" cy="240.1" r="1.8"/>
			<circle cx="398.6" cy="249.4" r="1.8"/>
			<circle cx="408" cy="254.9" r="3.5"/>
			<circle cx="437.5" cy="245.5" r="3.5"/>
			<circle cx="415.9" cy="223.8" r="3.5"/>
			<circle cx="409.2" cy="235.2" r="2.2"/>
			<circle cx="413.7" cy="275.6" r="2.2"/>
			<circle cx="431.9" cy="258.8" r="2.2"/>
			<circle cx="399.4" cy="258.8" r="2.2"/>
			<circle cx="424.6" cy="251.5" r="2.2"/>
			<circle cx="392.7" cy="238.3" r="2.2"/>
			<circle cx="416.4" cy="246.5" r="1.1"/>
			<circle cx="405.6" cy="271.6" r="1"/>
			<circle cx="415.4" cy="258.8" r="1"/>
			<circle cx="400.4" cy="234" r="1.1"/>
			<circle cx="383.9" cy="249.4" r="1.1"/>
			<circle cx="427.2" cy="261" r="1"/>
			<circle cx="421.3" cy="235.2" r="1.1"/>
			<circle cx="428.2" cy="246.5" r="1"/>
			<circle cx="408" cy="244.4" r="1.1"/>
		</g>
		<g display="inline">
			<circle cx="469.6" cy="214.3" r="1.8"/>
			<circle cx="438.2" cy="223.6" r="1.8"/>
			<circle cx="447.6" cy="229.1" r="3.4"/>
			<circle cx="477.1" cy="219.7" r="3.5"/>
			<circle cx="455.5" cy="198" r="3.4"/>
			<circle cx="448.8" cy="209.4" r="2.2"/>
			<circle cx="453.3" cy="249.8" r="2.2"/>
			<circle cx="471.5" cy="233" r="2.2"/>
			<circle cx="439" cy="233" r="2.2"/>
			<circle cx="464.2" cy="225.7" r="2.2"/>
			<circle cx="432.3" cy="212.5" r="2.2"/>
			<circle cx="456" cy="220.7" r="1"/>
			<circle cx="445.2" cy="245.8" r="1"/>
			<circle cx="455" cy="233" r="1"/>
			<circle cx="440" cy="208.2" r="1.1"/>
			<circle cx="423.5" cy="223.6" r="1.1"/>
			<circle cx="466.8" cy="235.2" r="1.1"/>
			<circle cx="460.9" cy="209.4" r="1.1"/>
			<circle cx="467.8" cy="220.7" r="1"/>
			<circle cx="447.6" cy="218.6" r="1.1"/>
		</g>
		<g display="inline">
			<circle cx="303" cy="261.8" r="1.8"/>
			<circle cx="271.6" cy="271.1" r="1.8"/>
			<circle cx="281" cy="276.6" r="3.5"/>
			<circle cx="310.5" cy="267.2" r="3.5"/>
			<circle cx="288.9" cy="245.4" r="3.5"/>
			<circle cx="282.2" cy="256.9" r="2.2"/>
			<circle cx="286.7" cy="297.2" r="2.2"/>
			<circle cx="304.8" cy="280.5" r="2.2"/>
			<circle cx="272.3" cy="280.5" r="2.2"/>
			<circle cx="297.6" cy="273.2" r="2.2"/>
			<circle cx="265.6" cy="260" r="2.2"/>
			<circle cx="289.4" cy="268.2" r="1"/>
			<circle cx="278.6" cy="293.3" r="1"/>
			<circle cx="288.3" cy="280.5" r="1"/>
			<circle cx="273.4" cy="255.7" r="1.1"/>
			<circle cx="256.9" cy="271.1" r="1"/>
			<circle cx="300.2" cy="282.7" r="1"/>
			<circle cx="294.3" cy="256.9" r="1"/>
			<circle cx="301.2" cy="268.2" r="1"/>
			<circle cx="281" cy="266.1" r="1"/>
		</g>
		<g display="inline">
			<circle cx="341.5" cy="238.9" r="1.8"/>
			<circle cx="310.1" cy="248.2" r="1.8"/>
			<circle cx="319.5" cy="253.7" r="3.5"/>
			<circle cx="349" cy="244.3" r="3.5"/>
			<circle cx="327.4" cy="222.6" r="3.5"/>
			<circle cx="320.7" cy="234" r="2.2"/>
			<circle cx="325.1" cy="274.4" r="2.2"/>
			<circle cx="343.3" cy="257.6" r="2.2"/>
			<circle cx="310.8" cy="257.6" r="2.2"/>
			<circle cx="336.1" cy="250.3" r="2.2"/>
			<circle cx="304.1" cy="237.1" r="2.2"/>
			<circle cx="327.9" cy="245.4" r="1.1"/>
			<circle cx="317.1" cy="270.4" r="1"/>
			<circle cx="326.8" cy="257.6" r="1"/>
			<circle cx="311.9" cy="232.8" r="1.1"/>
			<circle cx="295.4" cy="248.2" r="1.1"/>
			<circle cx="338.7" cy="259.8" r="1"/>
			<circle cx="332.8" cy="234" r="1.1"/>
			<circle cx="339.7" cy="245.4" r="1.1"/>
			<circle cx="319.5" cy="243.3" r="1.1"/>
		</g>
		<g display="inline">
			<circle cx="350.9" cy="288.3" r="1.8"/>
			<circle cx="319.5" cy="297.6" r="1.8"/>
			<circle cx="328.9" cy="303.1" r="3.5"/>
			<circle cx="358.4" cy="293.7" r="3.5"/>
			<circle cx="336.8" cy="271.9" r="3.5"/>
			<circle cx="330.1" cy="283.4" r="2.2"/>
			<circle cx="334.6" cy="323.7" r="2.2"/>
			<circle cx="352.7" cy="307" r="2.2"/>
			<circle cx="320.3" cy="307" r="2.2"/>
			<circle cx="345.5" cy="299.7" r="2.2"/>
			<circle cx="313.6" cy="286.5" r="2.2"/>
			<circle cx="337.3" cy="294.7" r="1"/>
			<circle cx="326.5" cy="319.8" r="1"/>
			<circle cx="336.2" cy="307" r="1"/>
			<circle cx="321.3" cy="282.2" r="1"/>
			<circle cx="304.8" cy="297.6" r="1"/>
			<circle cx="348.1" cy="309.2" r="1"/>
			<circle cx="342.2" cy="283.4" r="1"/>
			<circle cx="349.1" cy="294.7" r="1"/>
			<circle cx="328.9" cy="292.6" r="1"/>
		</g>
		<g display="inline">
			<circle cx="390.5" cy="262.5" r="1.8"/>
			<circle cx="359.1" cy="271.8" r="1.8"/>
			<circle cx="368.5" cy="277.3" r="3.5"/>
			<circle cx="398" cy="267.9" r="3.5"/>
			<circle cx="376.4" cy="246.2" r="3.4"/>
			<circle cx="369.7" cy="257.6" r="2.2"/>
			<circle cx="374.2" cy="298" r="2.2"/>
			<circle cx="392.3" cy="281.2" r="2.2"/>
			<circle cx="359.9" cy="281.2" r="2.2"/>
			<circle cx="385.1" cy="273.9" r="2.2"/>
			<circle cx="353.2" cy="260.7" r="2.2"/>
			<circle cx="376.9" cy="268.9" r="1"/>
			<circle cx="366.1" cy="294" r="1"/>
			<circle cx="375.8" cy="281.2" r="1"/>
			<circle cx="360.9" cy="256.4" r="1"/>
			<circle cx="344.4" cy="271.8" r="1"/>
			<circle cx="387.7" cy="283.4" r="1"/>
			<circle cx="381.8" cy="257.6" r="1"/>
			<circle cx="388.7" cy="268.9" r="1"/>
			<circle cx="368.5" cy="266.8" r="1"/>
		</g>
		<g display="inline">
			<circle cx="439.1" cy="285.9" r="1.8"/>
			<circle cx="407.6" cy="295.2" r="1.8"/>
			<circle cx="417" cy="300.7" r="3.5"/>
			<circle cx="446.6" cy="291.3" r="3.5"/>
			<circle cx="424.9" cy="269.5" r="3.5"/>
			<circle cx="418.2" cy="281" r="2.2"/>
			<circle cx="422.7" cy="321.3" r="2.2"/>
			<circle cx="440.9" cy="304.6" r="2.2"/>
			<circle cx="408.4" cy="304.6" r="2.2"/>
			<circle cx="433.7" cy="297.3" r="2.2"/>
			<circle cx="401.7" cy="284.1" r="2.2"/>
			<circle cx="425.4" cy="292.3" r="1"/>
			<circle cx="414.6" cy="317.4" r="1"/>
			<circle cx="424.4" cy="304.6" r="1"/>
			<circle cx="409.5" cy="279.8" r="1"/>
			<circle cx="392.9" cy="295.2" r="1"/>
			<circle cx="436.2" cy="306.8" r="1"/>
			<circle cx="430.4" cy="281" r="1"/>
			<circle cx="437.3" cy="292.3" r="1"/>
			<circle cx="417" cy="290.2" r="1"/>
		</g>
		<g display="inline">
			<circle cx="477.6" cy="263" r="1.8"/>
			<circle cx="446.1" cy="272.3" r="1.8"/>
			<circle cx="455.5" cy="277.8" r="3.5"/>
			<circle cx="485.1" cy="268.4" r="3.5"/>
			<circle cx="463.4" cy="246.7" r="3.4"/>
			<circle cx="456.7" cy="258.1" r="2.2"/>
			<circle cx="461.2" cy="298.5" r="2.2"/>
			<circle cx="479.4" cy="281.7" r="2.2"/>
			<circle cx="446.9" cy="281.7" r="2.2"/>
			<circle cx="472.1" cy="274.4" r="2.2"/>
			<circle cx="440.2" cy="261.2" r="2.2"/>
			<circle cx="463.9" cy="269.5" r="1"/>
			<circle cx="453.1" cy="294.5" r="1"/>
			<circle cx="462.9" cy="281.7" r="1"/>
			<circle cx="447.9" cy="256.9" r="1"/>
			<circle cx="431.4" cy="272.3" r="1"/>
			<circle cx="474.7" cy="283.9" r="1"/>
			<circle cx="468.9" cy="258.1" r="1"/>
			<circle cx="475.8" cy="269.5" r="1"/>
			<circle cx="455.5" cy="267.4" r="1"/>
		</g>
		<g display="inline">
			<circle cx="516.3" cy="238.6" r="1.8"/>
			<circle cx="484.8" cy="247.9" r="1.8"/>
			<circle cx="494.2" cy="253.5" r="3.5"/>
			<circle cx="523.8" cy="244" r="3.5"/>
			<circle cx="502.1" cy="222.3" r="3.4"/>
			<circle cx="495.4" cy="233.7" r="2.2"/>
			<circle cx="499.9" cy="274.1" r="2.2"/>
			<circle cx="518.1" cy="257.3" r="2.2"/>
			<circle cx="485.6" cy="257.3" r="2.2"/>
			<circle cx="510.8" cy="250" r="2.2"/>
			<circle cx="478.9" cy="236.8" r="2.2"/>
			<circle cx="502.6" cy="245.1" r="1"/>
			<circle cx="491.8" cy="270.1" r="1"/>
			<circle cx="501.6" cy="257.3" r="1"/>
			<circle cx="486.6" cy="232.5" r="1.1"/>
			<circle cx="470.1" cy="247.9" r="1.1"/>
			<circle cx="513.4" cy="259.5" r="1"/>
			<circle cx="507.6" cy="233.7" r="1.1"/>
			<circle cx="514.5" cy="245.1" r="1"/>
			<circle cx="494.2" cy="243" r="1.1"/>
		</g>
		<g display="inline">
			<circle cx="487" cy="312.4" r="1.8"/>
			<circle cx="455.6" cy="321.7" r="1.8"/>
			<circle cx="464.9" cy="327.2" r="3.5"/>
			<circle cx="494.5" cy="317.8" r="3.5"/>
			<circle cx="472.9" cy="296" r="3.5"/>
			<circle cx="466.2" cy="307.5" r="2.2"/>
			<circle cx="470.6" cy="347.8" r="2.2"/>
			<circle cx="488.8" cy="331.1" r="2.2"/>
			<circle cx="456.3" cy="331.1" r="2.2"/>
			<circle cx="481.6" cy="323.8" r="2.2"/>
			<circle cx="449.6" cy="310.6" r="2.2"/>
			<circle cx="473.4" cy="318.8" r="1"/>
			<circle cx="462.5" cy="343.9" r="1"/>
			<circle cx="472.3" cy="331.1" r="1"/>
			<circle cx="457.4" cy="306.3" r="1"/>
			<circle cx="440.8" cy="321.7" r="1"/>
			<circle cx="484.1" cy="333.3" r="1"/>
			<circle cx="478.3" cy="307.5" r="1"/>
			<circle cx="485.2" cy="318.8" r="1"/>
			<circle cx="464.9" cy="316.7" r="1"/>
		</g>
		<g display="inline">
			<circle cx="526.6" cy="286.6" r="1.8"/>
			<circle cx="495.2" cy="295.9" r="1.8"/>
			<circle cx="504.5" cy="301.4" r="3.5"/>
			<circle cx="534.1" cy="292" r="3.5"/>
			<circle cx="512.5" cy="270.3" r="3.5"/>
			<circle cx="505.8" cy="281.7" r="2.2"/>
			<circle cx="510.2" cy="322.1" r="2.2"/>
			<circle cx="528.4" cy="305.3" r="2.2"/>
			<circle cx="495.9" cy="305.3" r="2.2"/>
			<circle cx="521.2" cy="298" r="2.2"/>
			<circle cx="489.2" cy="284.8" r="2.2"/>
			<circle cx="513" cy="293" r="1"/>
			<circle cx="502.1" cy="318.1" r="1"/>
			<circle cx="511.9" cy="305.3" r="1"/>
			<circle cx="497" cy="280.5" r="1"/>
			<circle cx="480.4" cy="295.9" r="1"/>
			<circle cx="523.7" cy="307.5" r="1"/>
			<circle cx="517.9" cy="281.7" r="1"/>
			<circle cx="524.8" cy="293" r="1"/>
			<circle cx="504.5" cy="290.9" r="1"/>
		</g>
		<g display="inline">
			<circle cx="360" cy="334.1" r="1.8"/>
			<circle cx="328.5" cy="343.4" r="1.8"/>
			<circle cx="337.9" cy="348.9" r="3.5"/>
			<circle cx="367.5" cy="339.5" r="3.5"/>
			<circle cx="345.8" cy="317.7" r="3.5"/>
			<circle cx="339.1" cy="329.2" r="2.2"/>
			<circle cx="343.6" cy="369.5" r="2.2"/>
			<circle cx="361.8" cy="352.8" r="2.2"/>
			<circle cx="329.3" cy="352.8" r="2.2"/>
			<circle cx="354.5" cy="345.4" r="2.2"/>
			<circle cx="322.6" cy="332.3" r="2.2"/>
			<circle cx="346.3" cy="340.5" r="1"/>
			<circle cx="335.5" cy="365.6" r="1"/>
			<circle cx="345.3" cy="352.8" r="1"/>
			<circle cx="330.3" cy="328" r="1"/>
			<circle cx="313.8" cy="343.4" r="1"/>
			<circle cx="357.1" cy="355" r="1"/>
			<circle cx="351.3" cy="329.2" r="1"/>
			<circle cx="358.2" cy="340.5" r="1"/>
			<circle cx="337.9" cy="338.4" r="1"/>
		</g>
		<g display="inline">
			<circle cx="310.5" cy="308.7" r="1.8"/>
			<circle cx="279" cy="318" r="1.8"/>
			<circle cx="288.4" cy="323.5" r="3.5"/>
			<circle cx="318" cy="314.1" r="3.5"/>
			<circle cx="296.3" cy="292.4" r="3.5"/>
			<circle cx="289.6" cy="303.8" r="2.2"/>
			<circle cx="294.1" cy="344.2" r="2.2"/>
			<circle cx="312.3" cy="327.4" r="2.2"/>
			<circle cx="279.8" cy="327.4" r="2.2"/>
			<circle cx="305" cy="320.1" r="2.2"/>
			<circle cx="273.1" cy="306.9" r="2.2"/>
			<circle cx="296.8" cy="315.1" r="1"/>
			<circle cx="286" cy="340.2" r="1"/>
			<circle cx="295.8" cy="327.4" r="1"/>
			<circle cx="280.8" cy="302.6" r="1"/>
			<circle cx="264.3" cy="318" r="1"/>
			<circle cx="307.6" cy="329.6" r="1"/>
			<circle cx="301.8" cy="303.8" r="1"/>
			<circle cx="308.7" cy="315.1" r="1"/>
			<circle cx="288.4" cy="313" r="1"/>
		</g>
		<g display="inline">
			<circle cx="317.2" cy="354.1" r="1.8"/>
			<circle cx="285.8" cy="363.4" r="1.8"/>
			<circle cx="295.2" cy="369" r="3.5"/>
			<circle cx="324.7" cy="359.5" r="3.5"/>
			<circle cx="303.1" cy="337.8" r="3.5"/>
			<circle cx="296.4" cy="349.2" r="2.2"/>
			<circle cx="300.9" cy="389.6" r="2.2"/>
			<circle cx="319.1" cy="372.8" r="2.2"/>
			<circle cx="286.6" cy="372.8" r="2.2"/>
			<circle cx="311.8" cy="365.5" r="2.2"/>
			<circle cx="279.9" cy="352.3" r="2.2"/>
			<circle cx="303.6" cy="360.6" r="1"/>
			<circle cx="292.8" cy="385.6" r="1"/>
			<circle cx="302.6" cy="372.8" r="1"/>
			<circle cx="287.6" cy="348.1" r="1"/>
			<circle cx="271.1" cy="363.4" r="1"/>
			<circle cx="314.4" cy="375.1" r="1"/>
			<circle cx="308.5" cy="349.2" r="1"/>
			<circle cx="315.4" cy="360.6" r="1"/>
			<circle cx="295.2" cy="358.5" r="1"/>
		</g>
		<g display="inline">
			<circle cx="366.2" cy="381.2" r="1.8"/>
			<circle cx="334.8" cy="390.5" r="1.8"/>
			<circle cx="344.2" cy="396" r="3.5"/>
			<circle cx="373.7" cy="386.6" r="3.5"/>
			<circle cx="352.1" cy="364.8" r="3.5"/>
			<circle cx="345.4" cy="376.3" r="2.2"/>
			<circle cx="349.8" cy="416.6" r="2.2"/>
			<circle cx="368" cy="399.8" r="2.2"/>
			<circle cx="335.5" cy="399.8" r="2.2"/>
			<circle cx="360.8" cy="392.5" r="2.2"/>
			<circle cx="328.8" cy="379.4" r="2.2"/>
			<circle cx="352.6" cy="387.6" r="1"/>
			<circle cx="341.8" cy="412.6" r="1"/>
			<circle cx="351.5" cy="399.8" r="1"/>
			<circle cx="336.6" cy="375.1" r="1"/>
			<circle cx="320.1" cy="390.5" r="1"/>
			<circle cx="363.4" cy="402.1" r="1"/>
			<circle cx="357.5" cy="376.3" r="1"/>
			<circle cx="364.4" cy="387.6" r="1"/>
			<circle cx="344.2" cy="385.5" r="1"/>
		</g>
		<g display="inline">
			<circle cx="398.5" cy="311.2" r="1.8"/>
			<circle cx="367" cy="320.5" r="1.8"/>
			<circle cx="376.4" cy="326" r="3.5"/>
			<circle cx="406" cy="316.6" r="3.5"/>
			<circle cx="384.3" cy="294.9" r="3.5"/>
			<circle cx="377.6" cy="306.3" r="2.2"/>
			<circle cx="382.1" cy="346.7" r="2.2"/>
			<circle cx="400.3" cy="329.9" r="2.2"/>
			<circle cx="367.8" cy="329.9" r="2.2"/>
			<circle cx="393" cy="322.6" r="2.2"/>
			<circle cx="361.1" cy="309.4" r="2.2"/>
			<circle cx="384.8" cy="317.6" r="1"/>
			<circle cx="374" cy="342.7" r="1"/>
			<circle cx="383.8" cy="329.9" r="1"/>
			<circle cx="368.8" cy="305.1" r="1"/>
			<circle cx="352.3" cy="320.5" r="1"/>
			<circle cx="395.6" cy="332.1" r="1"/>
			<circle cx="389.8" cy="306.3" r="1"/>
			<circle cx="396.7" cy="317.6" r="1"/>
			<circle cx="376.4" cy="315.6" r="1"/>
		</g>
		<g display="inline">
			<circle cx="407.9" cy="360.6" r="1.8"/>
			<circle cx="376.4" cy="369.9" r="1.8"/>
			<circle cx="385.8" cy="375.4" r="3.5"/>
			<circle cx="415.4" cy="366" r="3.5"/>
			<circle cx="393.7" cy="344.2" r="3.5"/>
			<circle cx="387.1" cy="355.7" r="2.2"/>
			<circle cx="391.5" cy="396" r="2.2"/>
			<circle cx="409.7" cy="379.3" r="2.2"/>
			<circle cx="377.2" cy="379.3" r="2.2"/>
			<circle cx="402.5" cy="372" r="2.2"/>
			<circle cx="370.5" cy="358.8" r="2.2"/>
			<circle cx="394.2" cy="367" r="1"/>
			<circle cx="383.4" cy="392.1" r="1"/>
			<circle cx="393.2" cy="379.3" r="1"/>
			<circle cx="378.3" cy="354.5" r="1"/>
			<circle cx="361.7" cy="369.9" r="1"/>
			<circle cx="405" cy="381.5" r="1"/>
			<circle cx="399.2" cy="355.7" r="1"/>
			<circle cx="406.1" cy="367" r="1"/>
			<circle cx="385.8" cy="364.9" r="1"/>
		</g>
		<g display="inline">
			<circle cx="447.5" cy="334.8" r="1.8"/>
			<circle cx="416" cy="344.1" r="1.8"/>
			<circle cx="425.4" cy="349.6" r="3.5"/>
			<circle cx="455" cy="340.2" r="3.5"/>
			<circle cx="433.3" cy="318.4" r="3.5"/>
			<circle cx="426.6" cy="329.9" r="2.2"/>
			<circle cx="431.1" cy="370.2" r="2.2"/>
			<circle cx="449.3" cy="353.5" r="2.2"/>
			<circle cx="416.8" cy="353.5" r="2.2"/>
			<circle cx="442" cy="346.2" r="2.2"/>
			<circle cx="410.1" cy="333" r="2.2"/>
			<circle cx="433.8" cy="341.2" r="1"/>
			<circle cx="423" cy="366.3" r="1"/>
			<circle cx="432.8" cy="353.5" r="1"/>
			<circle cx="417.8" cy="328.7" r="1"/>
			<circle cx="401.3" cy="344.1" r="1"/>
			<circle cx="444.6" cy="355.7" r="1"/>
			<circle cx="438.8" cy="329.9" r="1"/>
			<circle cx="445.7" cy="341.2" r="1"/>
			<circle cx="425.4" cy="339.1" r="1"/>
		</g>
		<g display="inline">
			<circle cx="477.4" cy="371.1" r="1.8"/>
			<circle cx="445.9" cy="380.4" r="1.8"/>
			<circle cx="455.3" cy="386" r="3.5"/>
			<circle cx="484.9" cy="376.5" r="3.5"/>
			<circle cx="463.2" cy="354.8" r="3.5"/>
			<circle cx="456.5" cy="366.2" r="2.2"/>
			<circle cx="461" cy="406.6" r="2.2"/>
			<circle cx="479.2" cy="389.8" r="2.2"/>
			<circle cx="446.7" cy="389.8" r="2.2"/>
			<circle cx="471.9" cy="382.5" r="2.2"/>
			<circle cx="440" cy="369.3" r="2.2"/>
			<circle cx="463.7" cy="377.6" r="1"/>
			<circle cx="452.9" cy="402.6" r="1"/>
			<circle cx="462.7" cy="389.8" r="1"/>
			<circle cx="447.7" cy="365.1" r="1"/>
			<circle cx="431.2" cy="380.4" r="1"/>
			<circle cx="474.5" cy="392" r="1"/>
			<circle cx="468.7" cy="366.2" r="1"/>
			<circle cx="475.6" cy="377.6" r="1"/>
			<circle cx="455.3" cy="375.5" r="1"/>
		</g>
		<g display="inline">
			<circle cx="515.9" cy="348.3" r="1.8"/>
			<circle cx="484.4" cy="357.6" r="1.8"/>
			<circle cx="493.8" cy="363.1" r="3.5"/>
			<circle cx="523.4" cy="353.7" r="3.5"/>
			<circle cx="501.7" cy="331.9" r="3.5"/>
			<circle cx="495" cy="343.4" r="2.2"/>
			<circle cx="499.5" cy="383.7" r="2.2"/>
			<circle cx="517.7" cy="366.9" r="2.2"/>
			<circle cx="485.2" cy="366.9" r="2.2"/>
			<circle cx="510.4" cy="359.6" r="2.2"/>
			<circle cx="478.5" cy="346.5" r="2.2"/>
			<circle cx="502.2" cy="354.7" r="1"/>
			<circle cx="491.4" cy="379.7" r="1"/>
			<circle cx="501.2" cy="366.9" r="1"/>
			<circle cx="486.2" cy="342.2" r="1"/>
			<circle cx="469.7" cy="357.6" r="1"/>
			<circle cx="513" cy="369.2" r="1"/>
			<circle cx="507.2" cy="343.4" r="1"/>
			<circle cx="514.1" cy="354.7" r="1"/>
			<circle cx="493.8" cy="352.6" r="1"/>
		</g>
		<g display="inline">
			<circle cx="554.6" cy="323.9" r="1.8"/>
			<circle cx="523.1" cy="333.2" r="1.8"/>
			<circle cx="532.5" cy="338.7" r="3.5"/>
			<circle cx="562.1" cy="329.3" r="3.5"/>
			<circle cx="540.4" cy="307.5" r="3.5"/>
			<circle cx="533.7" cy="319" r="2.2"/>
			<circle cx="538.2" cy="359.3" r="2.2"/>
			<circle cx="556.4" cy="342.6" r="2.2"/>
			<circle cx="523.9" cy="342.6" r="2.2"/>
			<circle cx="549.1" cy="335.3" r="2.2"/>
			<circle cx="517.2" cy="322.1" r="2.2"/>
			<circle cx="540.9" cy="330.3" r="1"/>
			<circle cx="530.1" cy="355.4" r="1"/>
			<circle cx="539.9" cy="342.6" r="1"/>
			<circle cx="524.9" cy="317.8" r="1"/>
			<circle cx="508.4" cy="333.2" r="1"/>
			<circle cx="551.7" cy="344.8" r="1"/>
			<circle cx="545.9" cy="319" r="1"/>
			<circle cx="552.8" cy="330.3" r="1"/>
			<circle cx="532.5" cy="328.2" r="1"/>
		</g>
		<g display="inline">
			<circle cx="525.3" cy="397.6" r="1.8"/>
			<circle cx="493.8" cy="406.9" r="1.8"/>
			<circle cx="503.2" cy="412.5" r="3.5"/>
			<circle cx="532.8" cy="403" r="3.5"/>
			<circle cx="511.1" cy="381.3" r="3.5"/>
			<circle cx="504.5" cy="392.7" r="2.2"/>
			<circle cx="508.9" cy="433.1" r="2.2"/>
			<circle cx="527.1" cy="416.3" r="2.2"/>
			<circle cx="494.6" cy="416.3" r="2.2"/>
			<circle cx="519.9" cy="409" r="2.2"/>
			<circle cx="487.9" cy="395.8" r="2.2"/>
			<circle cx="511.6" cy="404.1" r="1"/>
			<circle cx="500.8" cy="429.1" r="1"/>
			<circle cx="510.6" cy="416.3" r="1"/>
			<circle cx="495.7" cy="391.6" r="1"/>
			<circle cx="479.1" cy="406.9" r="1"/>
			<circle cx="522.4" cy="418.5" r="1"/>
			<circle cx="516.6" cy="392.7" r="1"/>
			<circle cx="523.5" cy="404.1" r="1"/>
			<circle cx="503.2" cy="402" r="1"/>
		</g>
		<g display="inline">
			<circle cx="564.9" cy="371.8" r="1.8"/>
			<circle cx="533.4" cy="381.1" r="1.8"/>
			<circle cx="542.8" cy="386.7" r="3.5"/>
			<circle cx="572.4" cy="377.2" r="3.5"/>
			<circle cx="550.7" cy="355.5" r="3.5"/>
			<circle cx="544" cy="366.9" r="2.2"/>
			<circle cx="548.5" cy="407.3" r="2.2"/>
			<circle cx="566.7" cy="390.5" r="2.2"/>
			<circle cx="534.2" cy="390.5" r="2.2"/>
			<circle cx="559.5" cy="383.2" r="2.2"/>
			<circle cx="527.5" cy="370" r="2.2"/>
			<circle cx="551.2" cy="378.3" r="1"/>
			<circle cx="540.4" cy="403.3" r="1"/>
			<circle cx="550.2" cy="390.5" r="1"/>
			<circle cx="535.2" cy="365.8" r="1"/>
			<circle cx="518.7" cy="381.1" r="1"/>
			<circle cx="562" cy="392.8" r="1"/>
			<circle cx="556.2" cy="366.9" r="1"/>
			<circle cx="563.1" cy="378.3" r="1"/>
			<circle cx="542.8" cy="376.2" r="1"/>
		</g>
		<g display="inline">
			<circle cx="566.6" cy="262.3" r="1.8"/>
			<circle cx="535.2" cy="271.6" r="1.8"/>
			<circle cx="544.6" cy="277.1" r="3.5"/>
			<circle cx="574.1" cy="267.7" r="3.5"/>
			<circle cx="552.5" cy="246" r="3.4"/>
			<circle cx="545.8" cy="257.4" r="2.2"/>
			<circle cx="550.3" cy="297.8" r="2.2"/>
			<circle cx="568.4" cy="281" r="2.2"/>
			<circle cx="536" cy="281" r="2.2"/>
			<circle cx="561.2" cy="273.7" r="2.2"/>
			<circle cx="529.3" cy="260.5" r="2.2"/>
			<circle cx="553" cy="268.7" r="1"/>
			<circle cx="542.2" cy="293.8" r="1"/>
			<circle cx="552" cy="281" r="1"/>
			<circle cx="537" cy="256.2" r="1"/>
			<circle cx="520.5" cy="271.6" r="1"/>
			<circle cx="563.8" cy="283.2" r="1"/>
			<circle cx="557.9" cy="257.4" r="1"/>
			<circle cx="564.8" cy="268.7" r="1"/>
			<circle cx="544.6" cy="266.6" r="1"/>
		</g>
		<g display="inline">
			<circle cx="509.6" cy="189" r="1.8"/>
			<circle cx="478.1" cy="198.3" r="1.8"/>
			<circle cx="487.5" cy="203.8" r="3.4"/>
			<circle cx="517.1" cy="194.4" r="3.5"/>
			<circle cx="495.4" cy="172.7" r="3.4"/>
			<circle cx="488.7" cy="184.1" r="2.2"/>
			<circle cx="493.2" cy="224.5" r="2.2"/>
			<circle cx="511.4" cy="207.7" r="2.2"/>
			<circle cx="478.9" cy="207.7" r="2.2"/>
			<circle cx="504.1" cy="200.4" r="2.2"/>
			<circle cx="472.2" cy="187.2" r="2.2"/>
			<circle cx="495.9" cy="195.4" r="1"/>
			<circle cx="485.1" cy="220.5" r="1"/>
			<circle cx="494.9" cy="207.7" r="1"/>
			<circle cx="479.9" cy="182.9" r="1.1"/>
			<circle cx="463.4" cy="198.3" r="1.1"/>
			<circle cx="506.7" cy="209.9" r="1.1"/>
			<circle cx="500.9" cy="184.1" r="1.1"/>
			<circle cx="507.8" cy="195.4" r="1"/>
			<circle cx="487.5" cy="193.3" r="1.1"/>
		</g>
		<g display="inline">
			<circle cx="461.7" cy="165.4" r="1.8"/>
			<circle cx="430.3" cy="174.7" r="1.8"/>
			<circle cx="439.6" cy="180.3" r="3.4"/>
			<circle cx="469.2" cy="170.8" r="3.5"/>
			<circle cx="447.6" cy="149.1" r="3.4"/>
			<circle cx="440.9" cy="160.5" r="2.2"/>
			<circle cx="445.3" cy="200.9" r="2.2"/>
			<circle cx="463.5" cy="184.1" r="2.2"/>
			<circle cx="431" cy="184.1" r="2.2"/>
			<circle cx="456.3" cy="176.8" r="2.2"/>
			<circle cx="424.3" cy="163.6" r="2.2"/>
			<circle cx="448.1" cy="171.9" r="1"/>
			<circle cx="437.2" cy="196.9" r="1"/>
			<circle cx="447" cy="184.1" r="1"/>
			<circle cx="432.1" cy="159.3" r="1.1"/>
			<circle cx="415.5" cy="174.7" r="1.1"/>
			<circle cx="458.8" cy="186.3" r="1.1"/>
			<circle cx="453" cy="160.5" r="1.1"/>
			<circle cx="459.9" cy="171.9" r="1"/>
			<circle cx="439.6" cy="169.8" r="1.1"/>
		</g>
		<g display="inline">
			<circle cx="555.7" cy="215" r="1.8"/>
			<circle cx="524.2" cy="224.3" r="1.8"/>
			<circle cx="533.6" cy="229.8" r="3.4"/>
			<circle cx="563.2" cy="220.4" r="3.5"/>
			<circle cx="541.5" cy="198.7" r="3.4"/>
			<circle cx="534.8" cy="210.1" r="2.2"/>
			<circle cx="539.3" cy="250.5" r="2.2"/>
			<circle cx="557.5" cy="233.7" r="2.2"/>
			<circle cx="525" cy="233.7" r="2.2"/>
			<circle cx="550.2" cy="226.4" r="2.2"/>
			<circle cx="518.3" cy="213.2" r="2.2"/>
			<circle cx="542" cy="221.4" r="1"/>
			<circle cx="531.2" cy="246.5" r="1"/>
			<circle cx="541" cy="233.7" r="1"/>
			<circle cx="526" cy="208.9" r="1.1"/>
			<circle cx="509.5" cy="224.3" r="1.1"/>
			<circle cx="552.8" cy="235.9" r="1.1"/>
			<circle cx="547" cy="210.1" r="1.1"/>
			<circle cx="553.9" cy="221.4" r="1"/>
			<circle cx="533.6" cy="219.3" r="1.1"/>
		</g>
		<g display="inline">
			<circle cx="393.5" cy="417.6" r="1.8"/>
			<circle cx="362.1" cy="426.9" r="1.8"/>
			<circle cx="371.4" cy="432.5" r="3.5"/>
			<circle cx="401" cy="423" r="3.5"/>
			<circle cx="379.4" cy="401.3" r="3.5"/>
			<circle cx="372.7" cy="412.7" r="2.2"/>
			<circle cx="377.1" cy="453.1" r="2.2"/>
			<circle cx="395.3" cy="436.3" r="2.2"/>
			<circle cx="362.8" cy="436.3" r="2.2"/>
			<circle cx="388.1" cy="429" r="2.2"/>
			<circle cx="356.1" cy="415.8" r="2.2"/>
			<circle cx="379.9" cy="424.1" r="1"/>
			<circle cx="369" cy="449.1" r="1"/>
			<circle cx="378.8" cy="436.3" r="1"/>
			<circle cx="363.9" cy="411.5" r="1"/>
			<circle cx="347.3" cy="426.9" r="1"/>
			<circle cx="390.6" cy="438.5" r="1"/>
			<circle cx="384.8" cy="412.7" r="1"/>
			<circle cx="391.7" cy="424.1" r="1"/>
			<circle cx="371.4" cy="422" r="1"/>
		</g>
		<g display="inline">
			<circle cx="436.8" cy="396.5" r="1.8"/>
			<circle cx="405.3" cy="405.8" r="1.8"/>
			<circle cx="414.7" cy="411.3" r="3.5"/>
			<circle cx="444.2" cy="401.9" r="3.5"/>
			<circle cx="422.6" cy="380.1" r="3.5"/>
			<circle cx="415.9" cy="391.6" r="2.2"/>
			<circle cx="420.4" cy="431.9" r="2.2"/>
			<circle cx="438.6" cy="415.1" r="2.2"/>
			<circle cx="406.1" cy="415.1" r="2.2"/>
			<circle cx="431.3" cy="407.8" r="2.2"/>
			<circle cx="399.4" cy="394.7" r="2.2"/>
			<circle cx="423.1" cy="402.9" r="1"/>
			<circle cx="412.3" cy="427.9" r="1"/>
			<circle cx="422.1" cy="415.1" r="1"/>
			<circle cx="407.1" cy="390.4" r="1"/>
			<circle cx="390.6" cy="405.8" r="1"/>
			<circle cx="433.9" cy="417.4" r="1"/>
			<circle cx="428" cy="391.6" r="1"/>
			<circle cx="434.9" cy="402.9" r="1"/>
			<circle cx="414.7" cy="400.8" r="1"/>
		</g>
		<g display="inline">
			<circle cx="444.6" cy="439.7" r="1.8"/>
			<circle cx="413.2" cy="449" r="1.8"/>
			<circle cx="422.6" cy="454.6" r="3.5"/>
			<circle cx="452.1" cy="445.1" r="3.5"/>
			<circle cx="430.5" cy="423.4" r="3.5"/>
			<circle cx="423.8" cy="434.8" r="2.2"/>
			<circle cx="428.2" cy="475.2" r="2.2"/>
			<circle cx="446.4" cy="458.4" r="2.2"/>
			<circle cx="413.9" cy="458.4" r="2.2"/>
			<circle cx="439.2" cy="451.1" r="2.2"/>
			<circle cx="407.2" cy="437.9" r="2.2"/>
			<circle cx="431" cy="446.2" r="1"/>
			<circle cx="420.1" cy="471.2" r="1"/>
			<circle cx="429.9" cy="458.4" r="1"/>
			<circle cx="415" cy="433.7" r="1"/>
			<circle cx="398.4" cy="449" r="1"/>
			<circle cx="441.7" cy="460.6" r="1"/>
			<circle cx="435.9" cy="434.8" r="1"/>
			<circle cx="442.8" cy="446.2" r="1"/>
			<circle cx="422.5" cy="444.1" r="1"/>
		</g>
		<g display="inline">
			<circle cx="485.8" cy="420" r="1.8"/>
			<circle cx="454.3" cy="429.3" r="1.8"/>
			<circle cx="463.7" cy="434.9" r="3.5"/>
			<circle cx="493.3" cy="425.4" r="3.5"/>
			<circle cx="471.6" cy="403.7" r="3.5"/>
			<circle cx="464.9" cy="415.1" r="2.2"/>
			<circle cx="469.4" cy="455.5" r="2.2"/>
			<circle cx="487.6" cy="438.7" r="2.2"/>
			<circle cx="455.1" cy="438.7" r="2.2"/>
			<circle cx="480.3" cy="431.4" r="2.2"/>
			<circle cx="448.4" cy="418.2" r="2.2"/>
			<circle cx="472.1" cy="426.5" r="1"/>
			<circle cx="461.3" cy="451.5" r="1"/>
			<circle cx="471.1" cy="438.7" r="1"/>
			<circle cx="456.1" cy="414" r="1"/>
			<circle cx="439.6" cy="429.3" r="1"/>
			<circle cx="482.9" cy="441" r="1"/>
			<circle cx="477.1" cy="415.1" r="1"/>
			<circle cx="484" cy="426.5" r="1"/>
			<circle cx="463.7" cy="424.4" r="1"/>
		</g>
	</g>
	<g id="Epizentrum_Verbr.">
		<path display="inline" fill="none" stroke="#000000" stroke-miterlimit="10" d="M412.6,317.2c-5-2.1-9-6.2-11.2-11.2"/>
		<path display="inline" fill="none" stroke="#000000" stroke-miterlimit="10" d="M429.3,278.1c5,2.1,9,6.2,11.2,11.2"/>
		<path display="inline" fill="none" stroke="#000000" stroke-miterlimit="10" d="M440.5,306c-2.1,5-6.2,9-11.2,11.2"/>
		<path display="inline" fill="none" stroke="#000000" stroke-miterlimit="10" d="M401.4,289.3c2.1-5,6.2-9,11.2-11.2"/>
		<path display="inline" fill="none" stroke="#000000" stroke-miterlimit="10" d="M429.3,263.2c12.9,3.1,23,13.2,26.1,26.1"/>
		<path display="inline" fill="none" stroke="#000000" stroke-miterlimit="10" d="M412.6,332.1c-12.9-3.1-23-13.2-26.1-26.1"/>
		<path display="inline" fill="none" stroke="#000000" stroke-miterlimit="10" d="M386.5,289.3c3.1-12.9,13.2-23,26.1-26.1"/>
		<path display="inline" fill="none" stroke="#000000" stroke-miterlimit="10" d="M455.4,306c-3.1,12.9-13.2,23-26.1,26.1"/>
		<path display="inline" fill="none" stroke="#000000" stroke-miterlimit="10" d="M412.6,353.7c-24.6-3.6-44.1-23.1-47.7-47.7"/>
		<path display="inline" fill="none" stroke="#000000" stroke-miterlimit="10" d="M477,289.3c-3.6-24.6-23.1-44.1-47.7-47.7"/>
		<path display="inline" fill="none" stroke="#000000" stroke-miterlimit="10" d="M477,306c-3.6,24.6-23.1,44.1-47.7,47.7"/>
		<path display="inline" fill="none" stroke="#000000" stroke-miterlimit="10" d="M364.9,289.3c3.6-24.6,23.1-44.1,47.7-47.7"/>
		<path display="inline" fill="none" stroke="#000000" stroke-miterlimit="10" d="M336.3,289.3c3.9-40.3,36-72.3,76.3-76.3"/>
		<path display="inline" fill="none" stroke="#000000" stroke-miterlimit="10" d="M412.6,382.3c-40.3-3.9-72.3-36-76.3-76.3"/>
		<path display="inline" fill="none" stroke="#000000" stroke-miterlimit="10" d="M505.6,306c-3.9,40.3-36,72.3-76.3,76.3"/>
		<path display="inline" fill="none" stroke="#000000" stroke-miterlimit="10" d="M429.3,213c40.3,3.9,72.3,36,76.3,76.3"/>
		<circle display="inline" cx="420.9" cy="297.6" r="8.4"/>
	</g>
	<g id="Riss_Entstehung">
		<polyline display="inline" fill="none" stroke="#000000" stroke-width="3" stroke-miterlimit="10" points="420.4,297.6 
			429.9,318.4 411.9,342.2 443.1,370.6 406.8,406.9 475.1,467.7 383.5,570.5 		"/>
	</g>
	<g id="Riss_Kopie">
		<polyline display="inline" fill="none" stroke="#000000" stroke-width="3" stroke-miterlimit="10" points="367.7,472.3 
			454.1,282.6 382.5,164.1 		"/>
	</g>
	<g id="Riss_Kopie_Kopie">
		
			<line display="inline" fill="none" stroke="#E30613" stroke-width="3" stroke-miterlimit="10" x1="510" y1="363.1" x2="504.4" y2="363.1"/>
		
			<line display="inline" fill="none" stroke="#E30613" stroke-width="3" stroke-miterlimit="10" x1="536.9" y1="363.1" x2="531.3" y2="363.1"/>
		
			<line display="inline" fill="none" stroke="#E30613" stroke-width="3" stroke-miterlimit="10" x1="442.4" y1="330.4" x2="444.3" y2="331.5"/>
		<path display="inline" fill="none" stroke="#E30613" stroke-width="3" stroke-miterlimit="10" d="M409.1,310.9
			c-1.6,1.2-2.7,3.2-2.7,5.4c0,3.7-3,6.7-6.7,6.7c-3.7,0-6.7-3-6.7-6.7s-3-6.7-6.7-6.7c-3.7,0-6.7,3-6.7,6.7c0,2.8-1.7,5.2-4.2,6.2"
			/>
		<path display="inline" fill="none" stroke="#E30613" stroke-width="3" stroke-miterlimit="10" d="M366.1,317.1
			c0-0.3-0.1-0.6-0.1-0.9c0-3.7-3-6.7-6.7-6.7c-1.5,0-2.9,0.5-4,1.3"/>
		<path display="inline" fill="none" stroke="#E30613" stroke-width="3" stroke-miterlimit="10" d="M419.9,317.2
			c0.5,3.3,3.3,5.8,6.7,5.8c0.9,0,1.7-0.2,2.4-0.5"/>
		<path display="inline" fill="none" stroke="#E30613" stroke-width="3" stroke-miterlimit="10" d="M433.2,336.6
			c0,3.7-3,6.7-6.7,6.7s-6.7-3-6.7-6.7s-3-6.7-6.7-6.7s-6.7,3-6.7,6.7c0,1.3-0.4,2.5-1,3.5"/>
		<path display="inline" fill="none" stroke="#E30613" stroke-width="3" stroke-miterlimit="10" d="M543,331.7
			c-1.3,1.2-2.2,3-2.2,4.9c0,3.7-3,6.7-6.7,6.7c-3.7,0-6.7-3-6.7-6.7c0-1.9-0.8-3.7-2.2-4.9"/>
		<path display="inline" fill="none" stroke="#E30613" stroke-width="3" stroke-miterlimit="10" d="M516.1,331.7
			c-1.3,1.2-2.2,3-2.2,4.9c0,3.7-3,6.7-6.7,6.7c-3.7,0-6.7-3-6.7-6.7c0-1.9-0.8-3.7-2.2-4.9"/>
		<path display="inline" fill="none" stroke="#E30613" stroke-width="3" stroke-miterlimit="10" d="M442.4,330.4
			c-0.7-0.3-1.5-0.4-2.4-0.4c-3.7,0-6.7,3-6.7,6.7"/>
		<path display="inline" fill="none" stroke="#E30613" stroke-width="3" stroke-miterlimit="10" d="M489.2,331.7
			c-1.3,1.2-2.2,3-2.2,4.9c0,3.7-3,6.7-6.7,6.7s-6.7-3-6.7-6.7c0-1.9-0.8-3.7-2.2-4.9"/>
		<path display="inline" fill="none" stroke="#E30613" stroke-width="3" stroke-miterlimit="10" d="M462.3,331.7
			c-1.3,1.2-2.2,3-2.2,4.9c0,3.7-3,6.7-6.7,6.7c-3.7,0-6.7-3-6.7-6.7c0-2.1-0.9-3.9-2.4-5.1"/>
		<path display="inline" fill="none" stroke="#E30613" stroke-width="3" stroke-miterlimit="10" d="M444.3,331.5
			c-0.6-0.5-1.2-0.9-1.9-1.1"/>
		<path display="inline" fill="none" stroke="#E30613" stroke-width="3" stroke-miterlimit="10" d="M477.5,363.1
			c-2.3-1.1-3.9-3.4-3.9-6.1c0-3.7-3-6.7-6.7-6.7s-6.7,3-6.7,6.7c0,2.7-1.6,5-3.9,6.1"/>
		<path display="inline" fill="none" stroke="#E30613" stroke-width="3" stroke-miterlimit="10" d="M504.4,363.1
			c-2.3-1.1-3.9-3.4-3.9-6.1c0-3.7-3-6.7-6.7-6.7c-3.7,0-6.7,3-6.7,6.7c0,2.7-1.6,5-3.9,6.1"/>
		<path display="inline" fill="none" stroke="#E30613" stroke-width="3" stroke-miterlimit="10" d="M433.2,357c0-0.2,0-0.4,0-0.6"/>
		<path display="inline" fill="none" stroke="#E30613" stroke-width="3" stroke-miterlimit="10" d="M450.6,363.1
			c-2.3-1.1-3.9-3.4-3.9-6.1c0-3.7-3-6.7-6.7-6.7c-3.5,0-6.4,2.7-6.7,6.2"/>
		<path display="inline" fill="none" stroke="#E30613" stroke-width="3" stroke-miterlimit="10" d="M558.2,363.1
			c-2.3-1.1-3.9-3.4-3.9-6.1c0-3.7-3-6.7-6.7-6.7s-6.7,3-6.7,6.7c0,2.7-1.6,5-3.9,6.1"/>
		<path display="inline" fill="none" stroke="#E30613" stroke-width="3" stroke-miterlimit="10" d="M531.3,363.1
			c-2.3-1.1-3.9-3.4-3.9-6.1c0-3.7-3-6.7-6.7-6.7c-3.7,0-6.7,3-6.7,6.7c0,2.7-1.6,5-3.9,6.1"/>
		<g display="inline">
			<polyline fill="none" stroke="#000000" stroke-width="3" stroke-miterlimit="10" points="603.2,363.1 444.7,363.1 337.3,300.3 
				235.3,300.3 			"/>
			<polyline fill="none" stroke="#000000" stroke-width="3" stroke-miterlimit="10" points="603.2,331.7 444.7,331.7 337.3,268.9 
				235.3,268.9 			"/>
		</g>
	</g>
	<g id="Riss_Kopie_Kopie_Kopie">
		<g display="inline">
			<path fill="none" stroke="#E30613" stroke-width="3" stroke-miterlimit="10" d="M487,316.3L487,316.3c0,3.7-3,6.7-6.7,6.7
				c-3.7,0-6.7-3-6.7-6.7l0,0c0-3.7-3-6.7-6.7-6.7c-3.7,0-6.7,3-6.7,6.7l0,0l0,0c0,3.7-3,6.7-6.7,6.7s-6.7-3-6.7-6.7l0,0
				c0-3.7-3-6.7-6.7-6.7s-6.7,3-6.7,6.7l0,0l0,0c0,3.7-3,6.7-6.7,6.7c-3.7,0-6.7-3-6.7-6.7l0,0c0-3.7-3-6.7-6.7-6.7s-6.7,3-6.7,6.7
				l0,0l0,0c0,3.7-3,6.7-6.7,6.7c-3.7,0-6.7-3-6.7-6.7l0,0c0-3.7-3-6.7-6.7-6.7s-6.7,3-6.7,6.7l0,0l0,0c0,3.7-3,6.7-6.7,6.7
				c-3.7,0-6.7-3-6.7-6.7l0,0c0-3.7-3-6.7-6.7-6.7s-6.7,3-6.7,6.7l0,0l0,0c0,3.7-3,6.7-6.7,6.7s-6.7-3-6.7-6.7l0,0
				c0-3.7-3-6.7-6.7-6.7c-3.7,0-6.7,3-6.7,6.7l0,0"/>
			<path fill="none" stroke="#E30613" stroke-width="3" stroke-miterlimit="10" d="M648.4,316.3L648.4,316.3c0,3.7-3,6.7-6.7,6.7
				c-3.7,0-6.7-3-6.7-6.7l0,0c0-3.7-3-6.7-6.7-6.7c-3.7,0-6.7,3-6.7,6.7l0,0l0,0c0,3.7-3,6.7-6.7,6.7c-3.7,0-6.7-3-6.7-6.7l0,0
				c0-3.7-3-6.7-6.7-6.7c-3.7,0-6.7,3-6.7,6.7l0,0l0,0c0,3.7-3,6.7-6.7,6.7c-3.7,0-6.7-3-6.7-6.7l0,0c0-3.7-3-6.7-6.7-6.7
				s-6.7,3-6.7,6.7l0,0l0,0c0,3.7-3,6.7-6.7,6.7c-3.7,0-6.7-3-6.7-6.7l0,0c0-3.7-3-6.7-6.7-6.7c-3.7,0-6.7,3-6.7,6.7l0,0l0,0
				c0,3.7-3,6.7-6.7,6.7c-3.7,0-6.7-3-6.7-6.7l0,0c0-3.7-3-6.7-6.7-6.7c-3.7,0-6.7,3-6.7,6.7l0,0l0,0c0,3.7-3,6.7-6.7,6.7
				s-6.7-3-6.7-6.7l0,0c0-3.7-3-6.7-6.7-6.7s-6.7,3-6.7,6.7l0,0"/>
			<path fill="none" stroke="#E30613" stroke-width="3" stroke-miterlimit="10" d="M487,336.6L487,336.6c0,3.7-3,6.7-6.7,6.7
				c-3.7,0-6.7-3-6.7-6.7l0,0c0-3.7-3-6.7-6.7-6.7c-3.7,0-6.7,3-6.7,6.7l0,0l0,0c0,3.7-3,6.7-6.7,6.7s-6.7-3-6.7-6.7l0,0
				c0-3.7-3-6.7-6.7-6.7s-6.7,3-6.7,6.7l0,0l0,0c0,3.7-3,6.7-6.7,6.7c-3.7,0-6.7-3-6.7-6.7l0,0c0-3.7-3-6.7-6.7-6.7s-6.7,3-6.7,6.7
				l0,0l0,0c0,3.7-3,6.7-6.7,6.7c-3.7,0-6.7-3-6.7-6.7l0,0c0-3.7-3-6.7-6.7-6.7s-6.7,3-6.7,6.7l0,0l0,0c0,3.7-3,6.7-6.7,6.7
				c-3.7,0-6.7-3-6.7-6.7l0,0c0-3.7-3-6.7-6.7-6.7s-6.7,3-6.7,6.7l0,0l0,0c0,3.7-3,6.7-6.7,6.7s-6.7-3-6.7-6.7l0,0
				c0-3.7-3-6.7-6.7-6.7c-3.7,0-6.7,3-6.7,6.7l0,0"/>
			<path fill="none" stroke="#E30613" stroke-width="3" stroke-miterlimit="10" d="M648.4,336.6L648.4,336.6c0,3.7-3,6.7-6.7,6.7
				c-3.7,0-6.7-3-6.7-6.7l0,0c0-3.7-3-6.7-6.7-6.7c-3.7,0-6.7,3-6.7,6.7l0,0l0,0c0,3.7-3,6.7-6.7,6.7c-3.7,0-6.7-3-6.7-6.7l0,0
				c0-3.7-3-6.7-6.7-6.7c-3.7,0-6.7,3-6.7,6.7l0,0l0,0c0,3.7-3,6.7-6.7,6.7c-3.7,0-6.7-3-6.7-6.7l0,0c0-3.7-3-6.7-6.7-6.7
				s-6.7,3-6.7,6.7l0,0l0,0c0,3.7-3,6.7-6.7,6.7c-3.7,0-6.7-3-6.7-6.7l0,0c0-3.7-3-6.7-6.7-6.7c-3.7,0-6.7,3-6.7,6.7l0,0l0,0
				c0,3.7-3,6.7-6.7,6.7c-3.7,0-6.7-3-6.7-6.7l0,0c0-3.7-3-6.7-6.7-6.7c-3.7,0-6.7,3-6.7,6.7l0,0l0,0c0,3.7-3,6.7-6.7,6.7
				s-6.7-3-6.7-6.7l0,0c0-3.7-3-6.7-6.7-6.7s-6.7,3-6.7,6.7l0,0"/>
			<path fill="none" stroke="#E30613" stroke-width="3" stroke-miterlimit="10" d="M487,357L487,357c0,3.7-3,6.7-6.7,6.7
				c-3.7,0-6.7-3-6.7-6.7l0,0c0-3.7-3-6.7-6.7-6.7c-3.7,0-6.7,3-6.7,6.7l0,0l0,0c0,3.7-3,6.7-6.7,6.7s-6.7-3-6.7-6.7l0,0
				c0-3.7-3-6.7-6.7-6.7s-6.7,3-6.7,6.7l0,0l0,0c0,3.7-3,6.7-6.7,6.7c-3.7,0-6.7-3-6.7-6.7l0,0c0-3.7-3-6.7-6.7-6.7s-6.7,3-6.7,6.7
				l0,0l0,0c0,3.7-3,6.7-6.7,6.7c-3.7,0-6.7-3-6.7-6.7l0,0c0-3.7-3-6.7-6.7-6.7s-6.7,3-6.7,6.7l0,0l0,0c0,3.7-3,6.7-6.7,6.7
				c-3.7,0-6.7-3-6.7-6.7l0,0c0-3.7-3-6.7-6.7-6.7s-6.7,3-6.7,6.7l0,0l0,0c0,3.7-3,6.7-6.7,6.7s-6.7-3-6.7-6.7l0,0
				c0-3.7-3-6.7-6.7-6.7c-3.7,0-6.7,3-6.7,6.7l0,0"/>
			<path fill="none" stroke="#E30613" stroke-width="3" stroke-miterlimit="10" d="M648.4,357L648.4,357c0,3.7-3,6.7-6.7,6.7
				c-3.7,0-6.7-3-6.7-6.7l0,0c0-3.7-3-6.7-6.7-6.7c-3.7,0-6.7,3-6.7,6.7l0,0l0,0c0,3.7-3,6.7-6.7,6.7c-3.7,0-6.7-3-6.7-6.7l0,0
				c0-3.7-3-6.7-6.7-6.7c-3.7,0-6.7,3-6.7,6.7l0,0l0,0c0,3.7-3,6.7-6.7,6.7c-3.7,0-6.7-3-6.7-6.7l0,0c0-3.7-3-6.7-6.7-6.7
				s-6.7,3-6.7,6.7l0,0l0,0c0,3.7-3,6.7-6.7,6.7c-3.7,0-6.7-3-6.7-6.7l0,0c0-3.7-3-6.7-6.7-6.7c-3.7,0-6.7,3-6.7,6.7l0,0l0,0
				c0,3.7-3,6.7-6.7,6.7c-3.7,0-6.7-3-6.7-6.7l0,0c0-3.7-3-6.7-6.7-6.7c-3.7,0-6.7,3-6.7,6.7l0,0l0,0c0,3.7-3,6.7-6.7,6.7
				s-6.7-3-6.7-6.7l0,0c0-3.7-3-6.7-6.7-6.7s-6.7,3-6.7,6.7l0,0"/>
			<path fill="none" stroke="#E30613" stroke-width="3" stroke-miterlimit="10" d="M487,377.4L487,377.4c0,3.7-3,6.7-6.7,6.7
				c-3.7,0-6.7-3-6.7-6.7l0,0c0-3.7-3-6.7-6.7-6.7c-3.7,0-6.7,3-6.7,6.7l0,0l0,0c0,3.7-3,6.7-6.7,6.7s-6.7-3-6.7-6.7l0,0
				c0-3.7-3-6.7-6.7-6.7s-6.7,3-6.7,6.7l0,0l0,0c0,3.7-3,6.7-6.7,6.7c-3.7,0-6.7-3-6.7-6.7l0,0c0-3.7-3-6.7-6.7-6.7s-6.7,3-6.7,6.7
				l0,0l0,0c0,3.7-3,6.7-6.7,6.7c-3.7,0-6.7-3-6.7-6.7l0,0c0-3.7-3-6.7-6.7-6.7s-6.7,3-6.7,6.7l0,0l0,0c0,3.7-3,6.7-6.7,6.7
				c-3.7,0-6.7-3-6.7-6.7l0,0c0-3.7-3-6.7-6.7-6.7s-6.7,3-6.7,6.7l0,0l0,0c0,3.7-3,6.7-6.7,6.7s-6.7-3-6.7-6.7l0,0
				c0-3.7-3-6.7-6.7-6.7c-3.7,0-6.7,3-6.7,6.7l0,0"/>
			<path fill="none" stroke="#E30613" stroke-width="3" stroke-miterlimit="10" d="M648.4,377.4L648.4,377.4c0,3.7-3,6.7-6.7,6.7
				c-3.7,0-6.7-3-6.7-6.7l0,0c0-3.7-3-6.7-6.7-6.7c-3.7,0-6.7,3-6.7,6.7l0,0l0,0c0,3.7-3,6.7-6.7,6.7c-3.7,0-6.7-3-6.7-6.7l0,0
				c0-3.7-3-6.7-6.7-6.7c-3.7,0-6.7,3-6.7,6.7l0,0l0,0c0,3.7-3,6.7-6.7,6.7c-3.7,0-6.7-3-6.7-6.7l0,0c0-3.7-3-6.7-6.7-6.7
				s-6.7,3-6.7,6.7l0,0l0,0c0,3.7-3,6.7-6.7,6.7c-3.7,0-6.7-3-6.7-6.7l0,0c0-3.7-3-6.7-6.7-6.7c-3.7,0-6.7,3-6.7,6.7l0,0l0,0
				c0,3.7-3,6.7-6.7,6.7c-3.7,0-6.7-3-6.7-6.7l0,0c0-3.7-3-6.7-6.7-6.7c-3.7,0-6.7,3-6.7,6.7l0,0l0,0c0,3.7-3,6.7-6.7,6.7
				s-6.7-3-6.7-6.7l0,0c0-3.7-3-6.7-6.7-6.7s-6.7,3-6.7,6.7l0,0"/>
			<path fill="none" stroke="#E30613" stroke-width="3" stroke-miterlimit="10" d="M487,397.7L487,397.7c0,3.7-3,6.7-6.7,6.7
				c-3.7,0-6.7-3-6.7-6.7l0,0c0-3.7-3-6.7-6.7-6.7c-3.7,0-6.7,3-6.7,6.7l0,0l0,0c0,3.7-3,6.7-6.7,6.7s-6.7-3-6.7-6.7l0,0
				c0-3.7-3-6.7-6.7-6.7s-6.7,3-6.7,6.7l0,0l0,0c0,3.7-3,6.7-6.7,6.7c-3.7,0-6.7-3-6.7-6.7l0,0c0-3.7-3-6.7-6.7-6.7s-6.7,3-6.7,6.7
				l0,0l0,0c0,3.7-3,6.7-6.7,6.7c-3.7,0-6.7-3-6.7-6.7l0,0c0-3.7-3-6.7-6.7-6.7s-6.7,3-6.7,6.7l0,0l0,0c0,3.7-3,6.7-6.7,6.7
				c-3.7,0-6.7-3-6.7-6.7l0,0c0-3.7-3-6.7-6.7-6.7s-6.7,3-6.7,6.7l0,0l0,0c0,3.7-3,6.7-6.7,6.7s-6.7-3-6.7-6.7l0,0
				c0-3.7-3-6.7-6.7-6.7c-3.7,0-6.7,3-6.7,6.7l0,0"/>
			<path fill="none" stroke="#E30613" stroke-width="3" stroke-miterlimit="10" d="M648.4,397.7L648.4,397.7c0,3.7-3,6.7-6.7,6.7
				c-3.7,0-6.7-3-6.7-6.7l0,0c0-3.7-3-6.7-6.7-6.7c-3.7,0-6.7,3-6.7,6.7l0,0l0,0c0,3.7-3,6.7-6.7,6.7c-3.7,0-6.7-3-6.7-6.7l0,0
				c0-3.7-3-6.7-6.7-6.7c-3.7,0-6.7,3-6.7,6.7l0,0l0,0c0,3.7-3,6.7-6.7,6.7c-3.7,0-6.7-3-6.7-6.7l0,0c0-3.7-3-6.7-6.7-6.7
				s-6.7,3-6.7,6.7l0,0l0,0c0,3.7-3,6.7-6.7,6.7c-3.7,0-6.7-3-6.7-6.7l0,0c0-3.7-3-6.7-6.7-6.7c-3.7,0-6.7,3-6.7,6.7l0,0l0,0
				c0,3.7-3,6.7-6.7,6.7c-3.7,0-6.7-3-6.7-6.7l0,0c0-3.7-3-6.7-6.7-6.7c-3.7,0-6.7,3-6.7,6.7l0,0l0,0c0,3.7-3,6.7-6.7,6.7
				s-6.7-3-6.7-6.7l0,0c0-3.7-3-6.7-6.7-6.7s-6.7,3-6.7,6.7l0,0"/>
		</g>
		<polygon display="inline" points="337.3,300.3 444.7,363.1 663.2,363.1 663.2,301 		"/>
	</g>
	<g id="Ebene_2">
		<path display="inline" fill="#FFFFFF" d="M0,0v595.3h841.9V0H0z M420.9,432.5c-74.5,0-134.8-60.4-134.8-134.8
			c0-74.5,60.4-134.8,134.8-134.8s134.8,60.4,134.8,134.8C555.8,372.1,495.4,432.5,420.9,432.5z"/>
		
			<circle display="inline" fill="none" stroke="#E30613" stroke-width="7" stroke-miterlimit="10" cx="420.9" cy="297.6" r="134.8"/>
	</g>
</g>
<g id="Layer_2">
	<g>
		<polygon stroke="#000000" stroke-miterlimit="10" points="201,162.1 221.3,162.1 208.7,170.7 		"/>
		<polygon fill="none" stroke="#000000" stroke-miterlimit="10" points="205.1,162.1 221.3,162.1 212.7,170.7 		"/>
	</g>
</g>
</svg>
