<?xml version="1.0" encoding="utf-8"?>
<!-- Generator: Adobe Illustrator 17.1.0, SVG Export Plug-In . SVG Version: 6.00 Build 0)  -->
<!DOCTYPE svg PUBLIC "-//W3C//DTD SVG 1.1//EN" "http://www.w3.org/Graphics/SVG/1.1/DTD/svg11.dtd">
<svg version="1.1" id="Layer_1" xmlns="http://www.w3.org/2000/svg" xmlns:xlink="http://www.w3.org/1999/xlink" x="0px" y="0px"
	 viewBox="0 290.4 850.4 263" enable-background="new 0 290.4 850.4 263" xml:space="preserve">
<path fill="none" stroke="#E30613" stroke-width="3" stroke-miterlimit="10" d="M835.2,321.2L835.2,321.2c0,9.4-7.6,17.1-17.1,17.1
	c-9.5,0-17.1-7.6-17.1-17.1l0,0c0-9.4-7.6-17.1-17.1-17.1s-17.1,7.6-17.1,17.1l0,0l0,0c0,9.4-7.6,17.1-17.1,17.1
	c-9.4,0-17.1-7.6-17.1-17.1l0,0c0-9.4-7.6-17.1-17.1-17.1c-9.5,0-17.1,7.6-17.1,17.1l0,0l0,0c0,9.4-7.6,17.1-17.1,17.1
	s-16.7-7.7-16.7-17.1l0,0c0-9.4-7.6-17.1-17.1-17.1c-9.5,0-17.1,7.6-17.1,17.1l0,0l0,0c0,9.4-7.6,17.1-17.1,17.1
	c-9.4,0-17.1-7.6-17.1-17.1l0,0c0-9.4-7.6-17.1-17.1-17.1c-9.4,0-17.1,7.6-17.1,17.1l0,0l0,0c0,9.4-7.6,17.1-17.1,17.1
	s-17.1-7.6-17.1-17.1l0,0c0-9.4-7.6-17.1-17.1-17.1s-17.1,7.6-17.1,17.1l0,0l0,0c0,9.4-7.6,17.1-17.1,17.1
	c-9.4,0-17.1-7.6-17.1-17.1l0,0c0-9.4-7.6-17.1-17.1-17.1c-9.4,0-17.1,7.6-17.1,17.1l0,0l0,0l0,0c0,9.4-7.6,17.1-17.1,17.1
	c-9.4,0-17.1-7.6-17.1-17.1l0,0c0-9.4-7.6-17.1-17.1-17.1c-9.4,0-17.1,7.6-17.1,17.1l0,0l0,0c0,9.4-7.6,17.1-17.1,17.1
	c-9.4,0-17.1-7.6-17.1-17.1l0,0c0-9.4-7.6-17.1-17.1-17.1c-9.4,0-17.1,7.6-17.1,17.1l0,0l0,0c0,9.4-7.6,17.1-17.1,17.1
	c-9.4,0-17.1-7.6-17.1-17.1l0,0c0-9.4-7.6-17.1-17.1-17.1c-9.5,0-17.1,7.6-17.1,17.1l0,0l0,0c0,9.4-7.6,17.1-17.1,17.1
	s-17.1-7.6-17.1-17.1l0,0c0-9.4-7.6-17.1-17.1-17.1s-17.1,7.6-17.1,17.1l0,0l0,0c0,9.4-7.6,17.1-17.1,17.1
	c-9.5,0-17.1-7.6-17.1-17.1l0,0c0-9.4-7.6-17.1-17.1-17.1S84,311.8,84,321.2l0,0l0,0c0,9.4-7.6,17.1-17.1,17.1s-17.1-7.6-17.1-17.1
	l0,0c0-9.4-7.6-17.1-17.1-17.1s-17.1,7.6-17.1,17.1l0,0"/>
<path fill="none" stroke="#E30613" stroke-width="3" stroke-miterlimit="10" d="M835.2,372.9L835.2,372.9c0,9.4-7.6,17.1-17.1,17.1
	c-9.5,0-17.1-7.6-17.1-17.1l0,0c0-9.4-7.6-17.1-17.1-17.1s-17.1,7.6-17.1,17.1l0,0l0,0c0,9.4-7.6,17.1-17.1,17.1
	c-9.4,0-17.1-7.6-17.1-17.1l0,0c0-9.4-7.6-17.1-17.1-17.1c-9.5,0-17.1,7.6-17.1,17.1l0,0l0,0c0,9.4-7.6,17.1-17.1,17.1
	s-16.7-7.7-16.7-17.1l0,0c0-9.4-7.6-17.1-17.1-17.1c-9.5,0-17.1,7.6-17.1,17.1l0,0l0,0c0,9.4-7.6,17.1-17.1,17.1
	c-9.4,0-17.1-7.6-17.1-17.1l0,0c0-9.4-7.6-17.1-17.1-17.1c-9.4,0-17.1,7.6-17.1,17.1l0,0l0,0c0,9.4-7.6,17.1-17.1,17.1
	s-17.1-7.6-17.1-17.1l0,0c0-9.4-7.6-17.1-17.1-17.1s-17.1,7.6-17.1,17.1l0,0l0,0c0,9.4-7.6,17.1-17.1,17.1
	c-9.4,0-17.1-7.6-17.1-17.1l0,0c0-9.4-7.6-17.1-17.1-17.1c-9.4,0-17.1,7.6-17.1,17.1l0,0l0,0l0,0c0,9.4-7.6,17.1-17.1,17.1
	c-9.4,0-17.1-7.6-17.1-17.1l0,0c0-9.4-7.6-17.1-17.1-17.1c-9.4,0-17.1,7.6-17.1,17.1l0,0l0,0c0,9.4-7.6,17.1-17.1,17.1
	c-9.4,0-17.1-7.6-17.1-17.1l0,0c0-9.4-7.6-17.1-17.1-17.1c-9.4,0-17.1,7.6-17.1,17.1l0,0l0,0c0,9.4-7.6,17.1-17.1,17.1
	c-9.4,0-17.1-7.6-17.1-17.1l0,0c0-9.4-7.6-17.1-17.1-17.1c-9.5,0-17.1,7.6-17.1,17.1l0,0l0,0c0,9.4-7.6,17.1-17.1,17.1
	s-17.1-7.6-17.1-17.1l0,0c0-9.4-7.6-17.1-17.1-17.1s-17.1,7.6-17.1,17.1l0,0l0,0c0,9.4-7.6,17.1-17.1,17.1
	c-9.5,0-17.1-7.6-17.1-17.1l0,0c0-9.4-7.6-17.1-17.1-17.1S84,363.5,84,372.9l0,0l0,0c0,9.4-7.6,17.1-17.1,17.1s-17.1-7.6-17.1-17.1
	l0,0c0-9.4-7.6-17.1-17.1-17.1s-17.1,7.6-17.1,17.1l0,0"/>
<path fill="none" stroke="#E30613" stroke-width="3" stroke-miterlimit="10" d="M835.2,424.6L835.2,424.6c0,9.4-7.6,17.1-17.1,17.1
	c-9.5,0-17.1-7.6-17.1-17.1l0,0c0-9.4-7.6-17.1-17.1-17.1s-17.1,7.6-17.1,17.1l0,0l0,0c0,9.4-7.6,17.1-17.1,17.1
	c-9.4,0-17.1-7.6-17.1-17.1l0,0c0-9.4-7.6-17.1-17.1-17.1c-9.5,0-17.1,7.6-17.1,17.1l0,0l0,0c0,9.4-7.6,17.1-17.1,17.1
	s-16.7-7.7-16.7-17.1l0,0c0-9.4-7.6-17.1-17.1-17.1c-9.5,0-17.1,7.6-17.1,17.1l0,0l0,0c0,9.4-7.6,17.1-17.1,17.1
	c-9.4,0-17.1-7.6-17.1-17.1l0,0c0-9.4-7.6-17.1-17.1-17.1c-9.4,0-17.1,7.6-17.1,17.1l0,0l0,0c0,9.4-7.6,17.1-17.1,17.1
	s-17.1-7.6-17.1-17.1l0,0c0-9.4-7.6-17.1-17.1-17.1s-17.1,7.6-17.1,17.1l0,0l0,0c0,9.4-7.6,17.1-17.1,17.1
	c-9.4,0-17.1-7.6-17.1-17.1l0,0c0-9.4-7.6-17.1-17.1-17.1c-9.4,0-17.1,7.6-17.1,17.1l0,0l0,0l0,0c0,9.4-7.6,17.1-17.1,17.1
	c-9.4,0-17.1-7.6-17.1-17.1l0,0c0-9.4-7.6-17.1-17.1-17.1c-9.4,0-17.1,7.6-17.1,17.1l0,0l0,0c0,9.4-7.6,17.1-17.1,17.1
	c-9.4,0-17.1-7.6-17.1-17.1l0,0c0-9.4-7.6-17.1-17.1-17.1c-9.4,0-17.1,7.6-17.1,17.1l0,0l0,0c0,9.4-7.6,17.1-17.1,17.1
	c-9.4,0-17.1-7.6-17.1-17.1l0,0c0-9.4-7.6-17.1-17.1-17.1c-9.5,0-17.1,7.6-17.1,17.1l0,0l0,0c0,9.4-7.6,17.1-17.1,17.1
	s-17.1-7.6-17.1-17.1l0,0c0-9.4-7.6-17.1-17.1-17.1s-17.1,7.6-17.1,17.1l0,0l0,0c0,9.4-7.6,17.1-17.1,17.1
	c-9.5,0-17.1-7.6-17.1-17.1l0,0c0-9.4-7.6-17.1-17.1-17.1S84,415.2,84,424.6l0,0l0,0c0,9.4-7.6,17.1-17.1,17.1s-17.1-7.6-17.1-17.1
	l0,0c0-9.4-7.6-17.1-17.1-17.1s-17.1,7.6-17.1,17.1l0,0"/>
<path fill="none" stroke="#E30613" stroke-width="3" stroke-miterlimit="10" d="M835.2,476.3L835.2,476.3c0,9.4-7.6,17.1-17.1,17.1
	c-9.5,0-17.1-7.6-17.1-17.1l0,0c0-9.4-7.6-17.1-17.1-17.1s-17.1,7.6-17.1,17.1l0,0l0,0c0,9.4-7.6,17.1-17.1,17.1
	c-9.4,0-17.1-7.6-17.1-17.1l0,0c0-9.4-7.6-17.1-17.1-17.1c-9.5,0-17.1,7.6-17.1,17.1l0,0l0,0c0,9.4-7.6,17.1-17.1,17.1
	s-16.7-7.7-16.7-17.1l0,0c0-9.4-7.6-17.1-17.1-17.1c-9.5,0-17.1,7.6-17.1,17.1l0,0l0,0c0,9.4-7.6,17.1-17.1,17.1
	c-9.4,0-17.1-7.6-17.1-17.1l0,0c0-9.4-7.6-17.1-17.1-17.1c-9.4,0-17.1,7.6-17.1,17.1l0,0l0,0c0,9.4-7.6,17.1-17.1,17.1
	s-17.1-7.6-17.1-17.1l0,0c0-9.4-7.6-17.1-17.1-17.1s-17.1,7.6-17.1,17.1l0,0l0,0c0,9.4-7.6,17.1-17.1,17.1
	c-9.4,0-17.1-7.6-17.1-17.1l0,0c0-9.4-7.6-17.1-17.1-17.1c-9.4,0-17.1,7.6-17.1,17.1l0,0l0,0l0,0c0,9.4-7.6,17.1-17.1,17.1
	c-9.4,0-17.1-7.6-17.1-17.1l0,0c0-9.4-7.6-17.1-17.1-17.1c-9.4,0-17.1,7.6-17.1,17.1l0,0l0,0c0,9.4-7.6,17.1-17.1,17.1
	c-9.4,0-17.1-7.6-17.1-17.1l0,0c0-9.4-7.6-17.1-17.1-17.1c-9.4,0-17.1,7.6-17.1,17.1l0,0l0,0c0,9.4-7.6,17.1-17.1,17.1
	c-9.4,0-17.1-7.6-17.1-17.1l0,0c0-9.4-7.6-17.1-17.1-17.1c-9.5,0-17.1,7.6-17.1,17.1l0,0l0,0c0,9.4-7.6,17.1-17.1,17.1
	s-17.1-7.6-17.1-17.1l0,0c0-9.4-7.6-17.1-17.1-17.1s-17.1,7.6-17.1,17.1l0,0l0,0c0,9.4-7.6,17.1-17.1,17.1
	c-9.5,0-17.1-7.6-17.1-17.1l0,0c0-9.4-7.6-17.1-17.1-17.1S84,466.9,84,476.3l0,0l0,0c0,9.4-7.6,17.1-17.1,17.1s-17.1-7.6-17.1-17.1
	l0,0c0-9.4-7.6-17.1-17.1-17.1s-17.1,7.6-17.1,17.1l0,0"/>
<path fill="none" stroke="#E30613" stroke-width="3" stroke-miterlimit="10" d="M835.2,528L835.2,528c0,9.4-7.6,17.1-17.1,17.1
	c-9.5,0-17.1-7.6-17.1-17.1l0,0c0-9.4-7.6-17.1-17.1-17.1s-17.1,7.6-17.1,17.1l0,0l0,0c0,9.4-7.6,17.1-17.1,17.1
	c-9.4,0-17.1-7.6-17.1-17.1l0,0c0-9.4-7.6-17.1-17.1-17.1c-9.5,0-17.1,7.6-17.1,17.1l0,0l0,0c0,9.4-7.6,17.1-17.1,17.1
	s-16.7-7.7-16.7-17.1l0,0c0-9.4-7.6-17.1-17.1-17.1c-9.5,0-17.1,7.6-17.1,17.1l0,0l0,0c0,9.4-7.6,17.1-17.1,17.1
	c-9.4,0-17.1-7.6-17.1-17.1l0,0c0-9.4-7.6-17.1-17.1-17.1c-9.4,0-17.1,7.6-17.1,17.1l0,0l0,0c0,9.4-7.6,17.1-17.1,17.1
	s-17.1-7.6-17.1-17.1l0,0c0-9.4-7.6-17.1-17.1-17.1s-17.1,7.6-17.1,17.1l0,0l0,0c0,9.4-7.6,17.1-17.1,17.1
	c-9.4,0-17.1-7.6-17.1-17.1l0,0c0-9.4-7.6-17.1-17.1-17.1c-9.4,0-17.1,7.6-17.1,17.1l0,0l0,0l0,0c0,9.4-7.6,17.1-17.1,17.1
	c-9.4,0-17.1-7.6-17.1-17.1l0,0c0-9.4-7.6-17.1-17.1-17.1c-9.4,0-17.1,7.6-17.1,17.1l0,0l0,0c0,9.4-7.6,17.1-17.1,17.1
	c-9.4,0-17.1-7.6-17.1-17.1l0,0c0-9.4-7.6-17.1-17.1-17.1c-9.4,0-17.1,7.6-17.1,17.1l0,0l0,0c0,9.4-7.6,17.1-17.1,17.1
	c-9.4,0-17.1-7.6-17.1-17.1l0,0c0-9.4-7.6-17.1-17.1-17.1c-9.5,0-17.1,7.6-17.1,17.1l0,0l0,0c0,9.4-7.6,17.1-17.1,17.1
	s-17.1-7.6-17.1-17.1l0,0c0-9.4-7.6-17.1-17.1-17.1s-17.1,7.6-17.1,17.1l0,0l0,0c0,9.4-7.6,17.1-17.1,17.1
	c-9.5,0-17.1-7.6-17.1-17.1l0,0c0-9.4-7.6-17.1-17.1-17.1S84,518.6,84,528l0,0l0,0c0,9.4-7.6,17.1-17.1,17.1s-17.1-7.6-17.1-17.1
	l0,0c0-9.4-7.6-17.1-17.1-17.1s-17.1,7.6-17.1,17.1l0,0"/>
<g id="Ebene_2" display="none">
	<path display="inline" fill="#FFFFFF" d="M-411.3,620.1v1515.7h2143.5V620.1H-411.3z M660.4,1721.3
		c-189.7,0-343.2-153.8-343.2-343.2c0-189.7,153.8-343.2,343.2-343.2s343.2,153.8,343.2,343.2
		C1003.9,1567.5,850.1,1721.3,660.4,1721.3z"/>
	
		<circle display="inline" fill="none" stroke="#E30613" stroke-width="7" stroke-miterlimit="10" cx="660.4" cy="1377.8" r="343.2"/>
</g>
</svg>
